<svg xmlns="http://www.w3.org/2000/svg" viewBox="0 0 366.13 123.83"><defs><style>.cls-1{fill:#f59d21;}.cls-2{fill:#a4a4a3;}.cls-3{fill:#bc2b32;}.cls-4{fill:#ed6c28;}.cls-5{fill:#1d4077;}.cls-6{fill:#8b4795;}.cls-7{fill:#62b232;}.cls-8{fill:#fac430;}.cls-9{fill:#3e74b9;}.cls-10{fill:#dc2d35;}.cls-11{fill:#c392c2;}.cls-12{fill:#ffe76c;}.cls-13{fill:#b5d486;}.cls-14{fill:#3d393a;}.cls-15{fill:#4c7bbe;}.cls-16{fill:#fff;}</style></defs><title>Recurso 1</title><g id="Capa_2" data-name="Capa 2"><g id="Capa_1-2" data-name="Capa 1"><path class="cls-1" d="M0,90a4.16,4.16,0,0,1,.23-1.18c0-.07,0-.15.06-.23A6.23,6.23,0,0,1,7.47,84a5.79,5.79,0,0,1,4.77,5.27c.25,3.48-1.62,6.09-4.8,6.7A6.12,6.12,0,0,1,.31,91.6c0-.11-.09-.23-.12-.34A4.33,4.33,0,0,1,0,90.07Z"/><path class="cls-2" d="M274.54,93.15c0-4.08,0-8.15,0-12.23,0-5.64-.21-11.26-.73-16.87-.08-.89.16-1.2,1.06-1.23,1.71-.06,3.43-.2,5.13-.35.9-.08.83.47.82,1.05q-.12,5.09-.22,10.19a8.5,8.5,0,0,0,0,1c0,.3-.17.7.18.87s.57-.2.82-.36A10.5,10.5,0,0,1,298,83c.64,5-.49,9.63-4.26,13.29a10.67,10.67,0,0,1-12.45,1.3c-.27-.17-.59-.51-.78-.07-.39.91-1.14.7-1.83.71-1.24,0-2.48,0-3.72,0-.54,0-.74-.1-.71-.74.08-1.43,0-2.88,0-4.32ZM285.3,78.23a6,6,0,0,0-4,1.18,1.62,1.62,0,0,0-.77,1.39c0,3.88,0,7.76.28,11.63a1.12,1.12,0,0,0,.52,1c2.13,1.32,6.75,1.68,8.69-1.77a10.76,10.76,0,0,0,.62-9.9C289.67,79.48,288,78.06,285.3,78.23Z"/><path class="cls-3" d="M93.81,62.2c3.83,10.59,3.08,20.58-4.11,29.59-2.91,3.65-6.91,6-11,8.09a37,37,0,0,1-7.89,3.27c.75-.83,1.58-1.85,2.51-2.77a54,54,0,0,0,6.08-6.77,19.51,19.51,0,0,0,3.71-10.82c.23-6.1-1-12-2.58-17.82,0-.11,0-.23-.06-.35C84.91,63.86,89.39,63.18,93.81,62.2Z"/><path class="cls-4" d="M34.75,97.54C22,95.73,13.61,88,10.49,78.3A36.58,36.58,0,0,1,9.26,64.78a33.92,33.92,0,0,1,1-7.36A6.3,6.3,0,0,1,11,59.72q.9,3.29,1.93,6.54a22,22,0,0,0,12.73,14A84.65,84.65,0,0,0,39.14,84.7c-.25.8-.48,1.6-.76,2.39Q36.57,92.32,34.75,97.54Z"/><path class="cls-5" d="M14.09,64.69c-4.22-10.6-3.68-20.67,3.36-30a23.23,23.23,0,0,1,5.29-4.84A55.45,55.45,0,0,1,34.5,23.47c.37-.15.75-.26,1.13-.38a1.71,1.71,0,0,1,.41,0c-.07.5-.48.71-.76,1-2.16,2.19-4.3,4.4-6.27,6.77-4.14,5-5.37,10.75-4.67,17.06a78,78,0,0,0,3,13.79c-2.9.58-5.82,1.09-8.7,1.76C17.09,63.81,15.46,63.81,14.09,64.69Z"/><path class="cls-6" d="M71.08,27.71C82,29.16,90.51,34.2,95.38,44.45a25.41,25.41,0,0,1,2.19,9.4A53,53,0,0,1,97.21,66a2.86,2.86,0,0,1-.39,1.19c-.75-2.4-1.53-4.74-2.22-7.11-2.35-8-7.57-13.22-15.4-16a83,83,0,0,0-12-3.38c.67-2.15,1.4-4.29,2-6.46S70.85,30,71.08,27.71Z"/><path class="cls-7" d="M33.33,27.85c4.12-4.69,9-8.28,15-10A26,26,0,0,1,68.13,19.8a57.09,57.09,0,0,1,10.8,7.28c.48.41.88.91,1.5,1.56-2.2-.66-4.18-1.29-6.18-1.84-3.71-1-7.43-1.86-11.33-1.38A23,23,0,0,0,53.51,29a72.34,72.34,0,0,0-11.68,9.52C39.71,36,37.56,33.4,35.5,30.78A12.1,12.1,0,0,1,33.33,27.85Z"/><path class="cls-8" d="M74,97c-7.49,8.81-16.76,13-28.43,11a22.55,22.55,0,0,1-6.07-2.17A54.63,54.63,0,0,1,27.65,98a2.2,2.2,0,0,1-.65-1l4.35,1.27A45.62,45.62,0,0,0,40,100.11a20.75,20.75,0,0,0,13.07-3.44,67,67,0,0,0,11.06-9l1.13-1.07c2,2.46,4,4.93,6,7.37A14.69,14.69,0,0,0,74,97Z"/><path class="cls-2" d="M203.28,65.52a16.27,16.27,0,0,1,6.18.32c6.88,1.77,9.4,9.17,5,14.81-2.32,3-5.67,4.13-9.23,4.82a18.43,18.43,0,0,1-4.53.25c-1-.05-1.32.2-1.28,1.23.14,3.35.15,6.71.28,10.06,0,1-.23,1.25-1.19,1.2a40,40,0,0,0-4.43,0c-1.07.06-1.44-.22-1.38-1.36.45-8,.26-16,.23-24,0-2.11-.11-4.23-.23-6.34,0-.76.15-1.06,1-1C196.89,65.55,200.08,65.52,203.28,65.52Zm-.17,4.57a19.71,19.71,0,0,0-3.13.21c-.61.1-.82.31-.78.91.18,3.07.29,6.14.25,9.22,0,.38,0,.73.54.74,2.65.05,5.29.06,7.67-1.36A4.89,4.89,0,0,0,210,74.68a4.48,4.48,0,0,0-3.24-4A9.67,9.67,0,0,0,203.11,70.1Z"/><path class="cls-2" d="M261.84,98.93c-5.14,0-8.78-.8-11.63-3.85-5.83-6.25-3.47-17.94,4.35-20.92,3.94-1.51,8-1.44,11.55,1.1,2.53,1.78,3.41,4.54,3.62,7.51.08,1,0,2.08,0,3.12s-.3,1.27-1.27,1.25c-3,0-5.92,0-8.87.05-1.64,0-3.27.17-4.91.14-1.13,0-1.14.47-.89,1.32a7.37,7.37,0,0,0,6.74,5.23,26.2,26.2,0,0,0,7.71-.84c1-.25,1.12.08,1,.9s-.2,1.9-.27,2.86A1.19,1.19,0,0,1,268,98,25,25,0,0,1,261.84,98.93ZM258.5,83.61v-.08h4.43c.39,0,.78.06.89-.53A4.6,4.6,0,0,0,260,77.79c-3.54-.35-5.88,1.57-6.38,5.13-.1.74.24.69.71.69Z"/><path class="cls-2" d="M220.12,84.14c.14-2.53-.16-5.52-.32-8.51,0-.87.15-1.2,1.09-1.2a28.22,28.22,0,0,0,4.79-.17c.78-.13,1,.22.92.94-.27,3.51-.33,7-.27,10.55a26.41,26.41,0,0,0,.47,4.52c.5,2.6,1.89,3.7,4.52,3.58a7.52,7.52,0,0,0,.95-.14c3.51-.62,3.76-.85,3.59-4.33-.18-3.76-.07-7.52-.17-11.27,0-.64,0-1.28,0-1.92-.11-1.73-.12-1.71,1.67-1.75a25.63,25.63,0,0,0,3.95-.16c.76-.13,1,.19.94.93-.15,3.19-.13,6.4-.18,9.59a81.85,81.85,0,0,0,.55,11.72c.21,1.65.22,1.65-1.42,1.7-1.08,0-2.16.08-3.23.18-.83.08-1.28-.15-1.33-1.06-.06-1.13-.49-1.15-1.38-.52a11.58,11.58,0,0,1-9.71,1.77c-3.1-.71-4.79-3-5.2-6.67A71.54,71.54,0,0,1,220.12,84.14Z"/><path class="cls-2" d="M335.53,87a46.26,46.26,0,0,0,.55,10.5c.13.62-.12.66-.59.67-1.36,0-2.72.07-4.06.2-.91.09-1.38-.24-1.41-1.12,0-1.07-.5-.69-1-.35a11.28,11.28,0,0,1-9.16,1.57,5.87,5.87,0,0,1-4.77-4.8,7.22,7.22,0,0,1,2.46-7c2.28-2.07,5.19-2.51,8.09-2.89,1-.13,2.07-.18,3.1-.23.46,0,.79-.1.77-.65-.1-2.61-.59-4-3.41-4.45a25,25,0,0,0-9.14.59c-.78.18-.94,0-.84-.71.06-.39.13-.79.18-1.18.39-2.84.39-2.86,3.25-3.23,3.45-.44,6.9-.87,10.35,0,3.66.89,5.54,3.14,5.65,6.87C335.58,82.88,335.53,85,335.53,87Zm-6,3.13h0q0-1.14,0-2.27c0-.38,0-.74-.54-.74-2.34,0-4.64.16-6.65,1.51a3.44,3.44,0,0,0-1.3,3.61,2.67,2.67,0,0,0,2.51,2.05,9.49,9.49,0,0,0,3.91-.28c2-.6,2.15-.87,2.12-2.93C329.5,90.8,329.5,90.48,329.5,90.16Z"/><path class="cls-9" d="M14.09,64.69c1.38-.88,3-.87,4.52-1.22,2.88-.67,5.8-1.18,8.7-1.76a134.35,134.35,0,0,0,7.42,15.53,25.58,25.58,0,0,0,3.59,5,31.48,31.48,0,0,1-4.78-1c-5.28-1.24-10.21-3.22-14-7.25A23.4,23.4,0,0,1,14.09,64.69Z"/><path class="cls-10" d="M93.81,62.2c-4.43,1-8.91,1.66-13.37,2.41a135.2,135.2,0,0,0-6.51-14.74,23.1,23.1,0,0,0-3.33-5.23c-.16-.17-.36-.34-.26-.67a12,12,0,0,1,2.75.68,62.49,62.49,0,0,1,8.12,2.81C87.81,50.32,91.81,55.4,93.81,62.2Z"/><path class="cls-1" d="M34.75,97.54q1.82-5.23,3.64-10.46c.27-.79.51-1.59.76-2.39a143.83,143.83,0,0,0,18.72,1.47c1.43,0,2.8-.44,4.29-.49-.06.22-.06.36-.13.43-3.26,3.35-6.52,6.7-10.55,9.16-4.77,2.92-9.94,3.45-15.35,2.57C35.66,97.77,35.21,97.64,34.75,97.54Z"/><path class="cls-11" d="M71.08,27.71c-.23,2.31-1.24,4.41-1.85,6.62s-1.33,4.31-2,6.46a121.23,121.23,0,0,0-18.74-1,32.3,32.3,0,0,0-4.19.59c0-.21,0-.35.08-.41,3.3-3.7,6.68-7.34,11-9.92C60.26,27.16,65.57,26.69,71.08,27.71Z"/><path class="cls-12" d="M74,97a14.69,14.69,0,0,1-2.68-3c-2-2.44-4-4.91-6-7.37a152.22,152.22,0,0,0,9.51-12.89,28.78,28.78,0,0,0,3.32-6.54,72.37,72.37,0,0,1,2,8.22,25.65,25.65,0,0,1,0,11A23.14,23.14,0,0,1,74,97Z"/><path class="cls-13" d="M33.33,27.85a12.1,12.1,0,0,0,2.17,2.93c2.06,2.62,4.21,5.17,6.32,7.75-3,3.61-5.95,7.28-8.59,11.18a34.49,34.49,0,0,0-4.45,7.78,33.29,33.29,0,0,1-1.56-5.95,30.11,30.11,0,0,1-.5-12C27.64,34.95,30.14,31.2,33.33,27.85Z"/><path class="cls-2" d="M306.69,98.2c-.76,0-1.52-.05-2.28,0s-1.11-.21-1.07-1.07c.13-2.91.23-5.83.25-8.74q.06-7.55,0-15.11a84.85,84.85,0,0,0-.62-9.55c-.06-.51-.06-.84.6-.87q2.87-.16,5.73-.4c.93-.08.81.51.79,1.07-.29,5.79-.26,11.58-.28,17.38,0,5.36.07,10.71.3,16.06,0,1-.29,1.34-1.26,1.24A20.9,20.9,0,0,0,306.69,98.2Z"/><path class="cls-14" d="M106.08,73.4c0-1.8,0-3.6,0-5.39,0-.7.21-.85.87-.86,3,0,3-.07,3,2.9,0,2.6,0,5.19,0,7.79a10.28,10.28,0,0,0,.27,2.13,3.67,3.67,0,0,0,7.18-.08,23.19,23.19,0,0,0,.28-5.13c0-2.24,0-4.47-.1-6.71,0-.65.09-.89.81-.9,2.87,0,2.9-.07,2.84,2.8-.07,3,.15,6.07-.22,9.1a7.54,7.54,0,0,1-11.64,5.68c-2.16-1.29-2.72-3.43-3-5.7C106.11,77.15,106.15,75.27,106.08,73.4Z"/><path class="cls-14" d="M155.77,72.21a37.35,37.35,0,0,0-.23-5.61c-.09-.64.08-.9.78-1,3.06-.24,3.08-.26,3,2.78-.16,5.36-.15,10.71.17,16.06,0,.59-.1.79-.68.77s-1.28,0-1.92.07c-.16,0-.43,0-.46,0-.64-1.56-1.42-.25-2,0a5.82,5.82,0,0,1-8-4.78,9.53,9.53,0,0,1,.08-3.34C147.53,72.44,151.13,70.5,155.77,72.21Zm.24,6.7h0c-.06-1.11-.19-2.23-.18-3.34,0-.82-.43-1.12-1.09-1.31a3.32,3.32,0,0,0-4.37,2.25,6.18,6.18,0,0,0-.22,3.64c.61,2.46,2.28,3.44,4.65,2.68.79-.25,1.3-.67,1.19-1.64A19.74,19.74,0,0,1,156,78.91Z"/><path class="cls-10" d="M100.69,96.56a6,6,0,1,1,6.11-5.91A6,6,0,0,1,100.69,96.56Z"/><path class="cls-11" d="M107.27,35a6.09,6.09,0,1,1-6-6.16A6.19,6.19,0,0,1,107.27,35Z"/><path class="cls-9" d="M6.51,29.12a6.08,6.08,0,0,1,.06,12.15,6.08,6.08,0,0,1-.06-12.15Z"/><path class="cls-13" d="M48.68,5.93a5.87,5.87,0,0,1,6-5.93,6,6,0,0,1,6,6.1,6,6,0,1,1-12-.17Z"/><path class="cls-14" d="M168.46,85.79c-4.06,0-6.71-2.81-6.68-7a7.16,7.16,0,0,1,7.28-7.4c4,.09,6.65,2.93,6.61,7.09A7,7,0,0,1,168.46,85.79Zm3.6-7a6.52,6.52,0,0,0-.92-3.29,2.82,2.82,0,0,0-4.93,0,6.21,6.21,0,0,0,.22,6.47,2.79,2.79,0,0,0,4.73-.11A6,6,0,0,0,172.06,78.77Z"/><path class="cls-12" d="M59.31,117.94a5.94,5.94,0,0,1-6,5.89c-3.3.07-5.83-2.64-5.83-6.27a5.91,5.91,0,0,1,11.81.38Z"/><path class="cls-14" d="M127.65,73.35a6.86,6.86,0,0,1,6.46-1.52A3.28,3.28,0,0,1,136.76,75c.11,3.23.07,6.47.1,9.71,0,.42-.15.59-.55.54h-.12c-3,.2-3,.2-2.81-2.77.09-1.76.09-3.52,0-5.28,0-1.1-.24-2.19-1.51-2.6a4.09,4.09,0,0,0-3.72.76c-.42.29-.23.73-.23,1.11,0,2.6,0,5.2.1,7.8,0,.77-.17,1-1,1-2.88,0-2.87,0-2.65-2.9a34.38,34.38,0,0,0-.41-9.43c-.16-.77.06-.9.72-.9a5.46,5.46,0,0,0,1.19-.16C127,71.64,127.75,71.8,127.65,73.35Z"/><path class="cls-14" d="M146.25,47.44c2.2-1.4,4.6-1.46,6.24-.19a6.38,6.38,0,0,1,1.75,6.89c-1.11,3.61-4.14,5-7.77,3.5,0,1.6,0,3.18,0,4.76,0,.66-.13.89-.84.9-2.42,0-2.42.07-2.28-2.38A69.07,69.07,0,0,0,143,47.76c-.1-.71,0-1,.74-1,.36,0,.71-.08,1.07-.11C145.79,46.54,145.79,46.55,146.25,47.44Zm5.17,4.72c0-2.72-1.91-4.25-4.15-3.35a1.22,1.22,0,0,0-.93,1.33c.1,1.51.13,3,.09,4.55,0,.9.42,1.18,1.18,1.31C149.94,56.38,151.44,54.88,151.42,52.16Z"/><path class="cls-14" d="M118.53,54c0,.4,0,.8,0,1.2,0,2.49,0,2.51-2.43,2.88a12.4,12.4,0,0,1-4.64-.06,7.26,7.26,0,0,1-5.8-7.22,8.16,8.16,0,0,1,5.69-8,14.3,14.3,0,0,1,5.47-.2c.52.06.84.22.74.91-.29,1.91-.25,1.88-2.2,1.69s-4.07-.25-5.36,1.75a6,6,0,0,0-.26,6.26,4.86,4.86,0,0,0,5.44,2.57c.45-.09.49-.25.41-.63-.26-1.38,0-2.8-.29-4.17,0-.12-.08-.3,0-.35.8-.74,1.79-.19,2.67-.35.57-.1.64.25.63.72,0,1,0,2,0,3Z"/><path class="cls-14" d="M188.84,58.35a16.51,16.51,0,0,1-3.08-.33c-.65-.09-.88-.41-.68-1.05a7,7,0,0,0,.23-1c.09-.62.35-.76,1-.55a10.2,10.2,0,0,0,4.39.33c.78-.08,1.66-.17,1.85-1.19a1.82,1.82,0,0,0-1.14-2c-1.16-.62-2.37-1.15-3.53-1.76a4.33,4.33,0,0,1-2.58-3.37,4.07,4.07,0,0,1,3.52-4.76,16,16,0,0,1,5.37,0c.61.07.81.39.64,1a2.16,2.16,0,0,0-.15.7c.06,1.06-.45,1.14-1.3.86a8.33,8.33,0,0,0-3.33-.2c-.73.05-1.47.23-1.66,1.09a1.53,1.53,0,0,0,1,1.81c1.12.53,2.26,1,3.35,1.57,2.28,1.2,3.13,2.76,2.89,5a3.77,3.77,0,0,1-2.46,3.25A10.5,10.5,0,0,1,188.84,58.35Z"/><path class="cls-14" d="M183.47,71.62a15.76,15.76,0,0,1,1.79,0c1.68.19,1.63.21,1.44,1.85-.12,1-.46,1.33-1.47,1a6.62,6.62,0,0,0-3.2-.18c-.5.06-1,.24-1.1.91a1.13,1.13,0,0,0,.76,1.22c1.05.47,2.12.9,3.16,1.4,2,1,2.81,2.33,2.57,4.38-.2,1.65-1.45,2.84-3.51,3.26a15.52,15.52,0,0,1-5.48,0c-.76-.12-1.12-.44-.84-1.25a2.79,2.79,0,0,0,.14-.82c0-.78.31-1,1.09-.72a8.76,8.76,0,0,0,4.14.26c.54-.08,1-.22,1.22-.8s-.25-1.07-.71-1.37a12.66,12.66,0,0,0-1.59-.82,15.85,15.85,0,0,1-2.54-1.32,3.68,3.68,0,0,1,.4-6.33A6.35,6.35,0,0,1,183.47,71.62Z"/><path class="cls-14" d="M168,52.17a5.94,5.94,0,0,1-6.19,6.19c-3.42,0-5.67-2.39-5.63-5.92a6,6,0,0,1,6.17-6.23A5.54,5.54,0,0,1,168,52.17Zm-8.7.12a4.75,4.75,0,0,0,.46,2.23,2.56,2.56,0,0,0,2.42,1.66,2.52,2.52,0,0,0,2.32-1.78,5,5,0,0,0-.41-4.8,2.38,2.38,0,0,0-4.1,0A4.38,4.38,0,0,0,159.29,52.29Z"/><path class="cls-14" d="M203,58.36a5.49,5.49,0,0,1-5.64-5.83,6.1,6.1,0,0,1,6.24-6.32,5.58,5.58,0,0,1,5.64,5.87A6,6,0,0,1,203,58.36Zm3.13-6.15a5.8,5.8,0,0,0-.63-2.31,2.46,2.46,0,0,0-2.3-1.43A2.44,2.44,0,0,0,201,50a4.78,4.78,0,0,0-.45,2.79c.27,2.18,1.46,3.52,3,3.4S206.12,54.48,206.13,52.21Z"/><path class="cls-14" d="M256.12,51.16c0,1.57,0,1.58-1.62,1.61s-3.36.09-5,0c-.94,0-1,.3-.64,1a3.6,3.6,0,0,0,3.75,2,21.33,21.33,0,0,0,2.6-.37c.59-.11.68,0,.72.64.07,1.25-.44,1.83-1.65,1.93a16.79,16.79,0,0,1-3.94.07,5.57,5.57,0,0,1-4.85-6c.12-3.34,2.21-5.66,5.28-5.88C254.14,46.06,256.09,47.82,256.12,51.16Zm-5.22-.06V51c.56,0,1.11,0,1.67,0,.75.05.84-.26.7-.92a2,2,0,0,0-1.86-1.71,2.3,2.3,0,0,0-2.52,1.39c-.54,1.14-.41,1.35.82,1.33Z"/><path class="cls-14" d="M137.68,57a5.94,5.94,0,0,1-4.54,1.17,3,3,0,0,1-2.82-2.78c-.42-2.22-.09-4.47-.23-6.7-.11-1.82-.06-1.74,1.73-1.94,1.2-.13,1.51.19,1.38,1.37a26.87,26.87,0,0,0,0,5.39,2.43,2.43,0,0,0,4,1.88c.39-.26.34-.59.34-.94,0-2.2,0-4.4-.14-6.6,0-.71,0-1.06.89-1.07,2.29,0,2.29-.09,2.2,2.22a62.7,62.7,0,0,0,.22,8.15c.05.6-.11.85-.68.74C139.2,57.74,138,58.68,137.68,57Z"/><path class="cls-14" d="M237.15,52.93a19.57,19.57,0,0,0,.25,4.3c.08.54,0,.8-.56.67-.78-.2-1.83.78-2.37-.57-.12-.31-.41.06-.57.15a5.57,5.57,0,0,1-3.22.7,3,3,0,0,1-3-2,3.38,3.38,0,0,1,1-3.68,7.25,7.25,0,0,1,4.23-1.4c.47-.05,1.31.4,1.32-.67A1.47,1.47,0,0,0,233,48.77a13.16,13.16,0,0,0-3.82.08c-.36.06-1,.47-1-.14s-.25-1.63.57-1.86a10.49,10.49,0,0,1,6.69,0,2.83,2.83,0,0,1,1.77,2.37A20.63,20.63,0,0,1,237.15,52.93Zm-2.87,1.35c0-1.68-.08-1.72-1.75-1.41a5.28,5.28,0,0,0-1.23.41,1.48,1.48,0,0,0-.92,1.64c.15,1.23,1.11,1.22,2,1.18C234,56,234.32,55.67,234.28,54.28Z"/><path class="cls-14" d="M174.65,46.38c.4,0,.8,0,1.2,0,1.75.1,2.05.58,1.45,2.22-.17.46-.39.34-.73.26a6.39,6.39,0,0,0-3.19-.22c-.38.1-.79.21-.86.71a1,1,0,0,0,.61,1.06c.9.42,1.84.77,2.73,1.21,1.66.81,2.36,1.94,2.2,3.48S177,57.6,175.16,58a12.9,12.9,0,0,1-4.89,0c-1.37-.22-.46-1.17-.51-1.77-.06-.78.48-.7,1-.52a7.93,7.93,0,0,0,3,.23c.59,0,1.3,0,1.47-.76s-.48-1.12-1-1.41-1.31-.59-2-.9c-2-1-2.76-2.18-2.4-3.78s1.77-2.67,3.86-2.75c.32,0,.64,0,1,0Z"/><path class="cls-14" d="M262.84,46.38c.4,0,.8,0,1.2,0,1.82.1,1.77.1,1.45,1.9-.12.7-.3.71-.91.54a5.6,5.6,0,0,0-3.07-.18c-.38.11-.79.22-.87.71a1,1,0,0,0,.62,1.05c.93.44,1.9.81,2.83,1.25a3.18,3.18,0,0,1,2.07,2.7c.15,2-.89,3.31-3.06,3.71a15,15,0,0,1-4.53,0c-1.27-.15-.71-1-.69-1.68,0-.94.51-.85,1.14-.64a8.07,8.07,0,0,0,3.09.2c.56,0,1.19-.14,1.32-.8s-.36-.95-.83-1.19c-.67-.35-1.37-.63-2.05-1-2.19-1-2.94-2.23-2.55-4,.33-1.53,1.89-2.54,4-2.6h.84Z"/><path class="cls-14" d="M217.25,46.38c.28,0,.56,0,.84,0,1.67.1,2,.74,1.33,2.31-.18.4-.38.31-.65.25a9.89,9.89,0,0,0-1.05-.2c-2.4-.2-3.8,1-3.85,3.29a3.61,3.61,0,0,0,3.91,3.86,6.21,6.21,0,0,1,1.18-.13c.4.06,1.07-.72,1.12.09s.49,1.87-.84,2.16c-2.53.54-5,.48-6.89-1.54a5.58,5.58,0,0,1-1-6.45A5.8,5.8,0,0,1,217.25,46.38Z"/><path class="cls-14" d="M243.26,49.61c0,2.47,0,4.95,0,7.42,0,.7-.16.87-.84.88C240,58,240,58,240.11,55.5a102.43,102.43,0,0,0-.18-13.28c0-.6,0-.84.68-.89,2.64-.19,2.63-.21,2.54,2.42,0,.36,0,.72,0,1.08q0,2.4,0,4.79Z"/><path class="cls-14" d="M143.77,78.52c0,2,0,4,0,6,0,.56-.1.73-.7.76-3,.13-3,.15-2.89-2.82a55.6,55.6,0,0,0-.26-9.32c-.11-.74,0-1.15.88-1.08s2.23-.71,2.82,0,.08,1.83.08,2.78c0,1.24,0,2.47,0,3.71Z"/><path class="cls-14" d="M124,48a3.59,3.59,0,0,1,4-1.47c.69.16.82.49.64,1.08a6.53,6.53,0,0,0-.23.93c-.11.76-.36,1-1.23.79-1.75-.39-3.25.26-3.09,2.57.12,1.71,0,3.43.06,5.14,0,.62,0,.91-.8.92-2.41,0-2.4.06-2.23-2.38a27.4,27.4,0,0,0-.33-7.74c-.17-.78.08-1.09.84-1.1.16,0,.32,0,.47-.06C123.53,46.49,123.53,46.49,124,48Z"/><path class="cls-14" d="M225.11,52.21c.07,1.6.12,3.19.22,4.79,0,.62,0,.91-.79.92-2.32,0-2.3.07-2.29-2.22a48.65,48.65,0,0,0-.22-7.9c-.1-.65,0-1,.78-1.05,2.55-.32,2.53-.37,2.42,2.22,0,1.08,0,2.16,0,3.24Z"/><path class="cls-14" d="M271.75,57.36c-.06-1.24-.08-2.48-.18-3.71-.08-1,.46-1.57,1.28-1.11a1,1,0,0,0,1,0,2.44,2.44,0,0,1,3.34,1.59,3.09,3.09,0,0,1-3.41,4.3c-.52-.06-.52.16-.51.51a12.33,12.33,0,0,0,0,1.32c.09.71-.12,1-.9,1s-.75-.46-.74-1c0-1,0-1.92,0-2.88Zm1.52-1.81c.29.6-.58,1.88,1,1.85.93,0,1.52-.87,1.48-2.09s-.6-1.79-1.5-1.77C272.76,53.59,273.31,54.68,273.27,55.54Z"/><path class="cls-14" d="M284.18,55.42a3,3,0,0,1-3.13,3.18,2.83,2.83,0,0,1-2.88-3.11,3.07,3.07,0,0,1,3.15-3.19A2.77,2.77,0,0,1,284.18,55.42Zm-1.59.13c0-1.19-.53-2-1.36-2s-1.4.67-1.42,1.82.52,2.11,1.4,2.11S282.57,56.68,282.59,55.54Z"/><path class="cls-15" d="M310.6,106.27c0-.83,0-1.65,0-2.48,0-.41-.05-.81.57-.79s.53.45.53.83c0,1.36,0,2.71,0,4.07,0,.32.2.76-.36.86a.87.87,0,0,1-1-.45,20.67,20.67,0,0,0-2.24-3.05c0,.87,0,1.75,0,2.62,0,.42.16.92-.58.9s-.51-.47-.51-.85c0-1.36,0-2.71,0-4.07,0-.32-.19-.79.38-.83s.83-.12,1.13.41c.56,1,1.2,1.95,1.81,2.92Z"/><path class="cls-15" d="M329.31,107c-.06-.59-.1-1.19-.19-1.78-.06-.41,0-.89.46-.72,1,.42,2.1-.57,3.1.19.36.28.66-.14,1-.23,1.2-.32,2,.21,2,1.44,0,.72,0,1.43,0,2.15,0,.41-.08.68-.58.69s-.59-.24-.58-.66c0-.64,0-1.28,0-1.91a.74.74,0,0,0-.8-.83c-.61,0-.72.36-.71.86s0,1.2,0,1.79-.07.76-.64.75-.53-.34-.52-.72c0-.56,0-1.12,0-1.67s-.11-1-.84-1-.72.47-.71,1,0,1.12,0,1.67-.06.75-.64.75-.57-.37-.54-.79,0-.64,0-1Z"/><path class="cls-14" d="M142.38,65.8a2,2,0,0,1,2.09,2.1,2.36,2.36,0,0,1-2.37,2.35,2,2,0,0,1-2.15-2.07A2.3,2.3,0,0,1,142.38,65.8Z"/><path class="cls-15" d="M356.14,108.75c-.59.15-.75-.24-.8-.72-.09-.83-.59-.94-1.33-1s-1.13.28-1.18,1-.57.86-1.08.69c-.73-.24-.13-.73,0-1,.45-1.36,1-2.68,1.46-4,.19-.62.54-.68,1.06-.67s.81,0,1,.6c.44,1.49.95,3,1.47,4.42C356.9,108.58,356.83,108.85,356.14,108.75Zm-2.76-2.58c1.61.2,1.62.17.72-2.14A8,8,0,0,0,353.39,106.18Z"/><path class="cls-15" d="M337.89,104.55c2.29-.32,3.41.76,2.91,2.71a2,2,0,0,1-2.41,1.57c-1.67-.26-1.66-.26-1.66-2,0-1.19,0-2.39-.05-3.58,0-.48,0-.74.59-.75s.64.29.62.75S337.89,104.11,337.89,104.55Zm0,2.15c.17.42-.38,1.33.72,1.33.91,0,1.06-.69,1.08-1.4s-.18-1.33-1-1.36C337.7,105.23,337.86,106,337.88,106.7Z"/><path class="cls-15" d="M299.29,105.72c0,.8,0,1.6,0,2.39,0,.23.05.48-.22.62a5.43,5.43,0,0,1-3.29-.31,2.49,2.49,0,0,1-.33-2.9,1.61,1.61,0,0,1,1.7-1.08c.83.1,1.05-.21,1-1-.06-.45-.18-1,.62-1s.52.55.53.93c0,.76,0,1.52,0,2.27Zm-1.06.91c-.23-.38.3-1.39-.79-1.38-.93,0-1.09.76-1.07,1.53s.24,1.26,1.08,1.26S298.25,107.37,298.23,106.63Z"/><path class="cls-14" d="M285.35,56.14a14.22,14.22,0,0,0-.17-2.62c-.14-.8.68-1.51,1.18-1s.81.15,1.22,0a1.4,1.4,0,0,1,1.48.08c.33.28-.07.66-.1,1,0,.54-.4.31-.7.28-1-.09-1.49.35-1.46,1.38,0,.8,0,1.6,0,2.39s-.25.76-.82.77-.86-.16-.75-.81A11.54,11.54,0,0,0,285.35,56.14Z"/><path class="cls-15" d="M362.74,108.91a2.91,2.91,0,0,1-3.15-2.94,3,3,0,0,1,3.16-3c.32,0,.89-.22.92.43s-.44.58-.89.58c-1.3,0-1.89.62-1.88,1.91a1.86,1.86,0,0,0,1.89,2c.37,0,1.08-.52,1.13.33S363.14,108.76,362.74,108.91Z"/><path class="cls-14" d="M223.83,45.22A1.69,1.69,0,0,1,222,43.44a2,2,0,0,1,2.11-1.95,1.6,1.6,0,0,1,1.72,1.71A1.9,1.9,0,0,1,223.83,45.22Z"/><path class="cls-15" d="M302.64,108.92c-1.66,0-2.65-1.05-2.54-2.41a2.18,2.18,0,0,1,2.63-2.08,1.47,1.47,0,0,1,1.12.79c.57,1,.26,1.6-.92,1.62a3,3,0,0,0-.6,0c-.31.07-.82-.24-.89.28s.38.65.76.79a2.1,2.1,0,0,0,1.06,0c.28,0,.67-.31.73.25,0,.38-.21.57-.58.61S302.78,108.9,302.64,108.92Zm-.47-2.76c.28-.11.8.2.8-.36a.66.66,0,0,0-.73-.62c-.45,0-.82.2-.81.66S301.9,106.09,302.17,106.16Z"/><path class="cls-15" d="M315,104.4a2,2,0,0,1,2.09,2.21,2.24,2.24,0,0,1-2.19,2.35,2.08,2.08,0,0,1-2.16-2.19A2.17,2.17,0,0,1,315,104.4Zm.93,2.33c0-.73-.14-1.47-1-1.5s-1,.66-1,1.34.1,1.44,1,1.46S315.85,107.38,315.89,106.73Z"/><path class="cls-15" d="M347.57,108.92c-1.62,0-2.61-1-2.54-2.35a2.12,2.12,0,0,1,2.44-2.15,1.55,1.55,0,0,1,1.52,1.65c0,.55-.15.82-.73.77a4.09,4.09,0,0,0-1,0c-.32,0-.84-.22-.93.22s.39.74.82.85a4.16,4.16,0,0,0,.94,0c.27,0,.66-.33.77.18s-.22.63-.63.67Zm-.49-2.75c.28-.12.8.2.81-.35a.67.67,0,0,0-.73-.63c-.45,0-.82.21-.82.66S346.81,106.09,347.08,106.17Z"/><path class="cls-15" d="M326.61,104.41a1.53,1.53,0,0,1,1.6.94c.44,1,.14,1.46-.94,1.49a1.85,1.85,0,0,0-.48,0c-.36.11-1-.3-1.05.33s.56.72,1,.81c.19,0,.4,0,.6,0s.75-.44.87.18-.37.6-.77.68c-2,.42-3.49-1-3-2.8A2,2,0,0,1,326.61,104.41Zm-.09,1.78c.17-.23.75.24.74-.38a.68.68,0,0,0-.74-.62c-.45,0-.82.22-.82.67S326.19,106.09,326.52,106.18Z"/><path class="cls-15" d="M290.28,104c1.7,0,2.19.85,1.33,2.23-.18.29-.1.34.08.54,1.11,1.2.92,2.36-.5,3.15a2.73,2.73,0,0,1-.77.31c-.51.1-1.27.58-1.46-.07s.72-.43,1.11-.63c.58-.31,1.24-.54,1.22-1.29s-.65-.91-1.28-1c-.24,0-.51,0-.55-.34s.2-.47.51-.52c.53-.09,1.15-.22,1.08-.87s-.71-.62-1.24-.63c-.26,0-.64.1-.59-.35C289.29,103.83,289.93,104.14,290.28,104Z"/><path class="cls-15" d="M319.84,107.07c.18-.55.4-1.1.53-1.67s.23-1,.88-.83c.81.26.16.8.06,1.15-.25.83-.65,1.62-1,2.44a.78.78,0,0,1-.86.62c-.47,0-.61-.25-.73-.62-.32-.94-.67-1.87-1-2.82-.08-.24-.45-.64.08-.77s.89-.17,1.07.43.42,1.35.63,2Z"/><path class="cls-15" d="M341.79,106.74q0-.72-.08-1.43a.49.49,0,0,0,0-.12c-.11-.35.06-.85.34-.64.85.6,1.78-.7,2.48.19.14.17,0,.82-.45.78-1.29-.11-1.07.76-1.2,1.55-.09.57.66,1.69-.59,1.64-1,0-.3-1.07-.5-1.61a1.12,1.12,0,0,1,0-.36Z"/><path class="cls-15" d="M287.92,106.42c0,.6,0,1.2,0,1.79,0,.42-.19.55-.58.55s-.58-.13-.57-.55q0-1,0-1.91c0-.22.09-.48-.16-.65s-1,.13-.55-.48a2.33,2.33,0,0,1,1.53-1.05c.31,0,.33.27.33.52q0,.9,0,1.79Z"/><path class="cls-15" d="M323.54,106.68c0,.48,0,1,0,1.44s-.1.67-.59.65-.56-.17-.56-.58c0-1,0-2.08,0-3.11,0-.55.35-.54.71-.58s.48.29.48.62Q323.54,105.9,323.54,106.68Z"/><path class="cls-15" d="M365.4,108.78a.66.66,0,0,1-.78-.69.72.72,0,0,1,.73-.77.63.63,0,0,1,.77.68A.73.73,0,0,1,365.4,108.78Z"/><path class="cls-15" d="M358.84,108c0,.45-.2.76-.67.8a.64.64,0,0,1-.79-.65.73.73,0,0,1,.8-.8C358.61,107.3,358.81,107.55,358.84,108Z"/><path class="cls-15" d="M323.76,103.27a.69.69,0,0,1-.78.69.59.59,0,0,1-.61-.61.69.69,0,0,1,.73-.77C323.51,102.57,323.75,102.83,323.76,103.27Z"/><path class="cls-16" d="M353.39,106.18a8,8,0,0,1,.72-2.14"/><path class="cls-16" d="M347.89,105.81c0,.56-.53.24-.81.35-.27-.08-.74.17-.74-.32"/><path class="cls-16" d="M327.27,105.81c0,.61-.57.15-.74.38-.34-.1-.81.15-.81-.33"/></g></g></svg>