<svg xmlns="http://www.w3.org/2000/svg" viewBox="0 0 281.93 221.65"><defs><style>.cls-1{fill:#999;}.cls-2{fill:#3e77c5;}</style></defs><title>Logo2Recurso 6</title><g id="Capa_2" data-name="Capa 2"><g id="Controles_bootstrap" data-name="Controles bootstrap"><path d="M18.26,22.73a18.5,18.5,0,0,1-5.82.95q-6.17,0-9.31-3.3A11.36,11.36,0,0,1,0,12.23,12.18,12.18,0,0,1,3.41,3.67Q6.82,0,12.87,0A16.28,16.28,0,0,1,17,.51l-.44,2.92a20.89,20.89,0,0,0-4.68-.7A8.2,8.2,0,0,0,5.37,5.3a9.34,9.34,0,0,0-2.26,6.39A9.73,9.73,0,0,0,5.7,18.4,9.34,9.34,0,0,0,13,21.29,18.75,18.75,0,0,0,15.61,21a26.67,26.67,0,0,1-.3-4.25,31.86,31.86,0,0,0-.25-4h3.2q-.14,2.32-.14,4.9Q18.12,18.79,18.26,22.73Z"/><path d="M33.35,6.64l-.76,2.7a6.7,6.7,0,0,0-2.46-.53,4,4,0,0,0-4.15,3q0,7.82.1,10.92h-3q.27-5.39.27-8.36a36.35,36.35,0,0,0-.8-7.71l3-.42a18.44,18.44,0,0,1,.32,2.5H26q1.83-2.7,4.28-2.7A10.68,10.68,0,0,1,33.35,6.64Z"/><path d="M50.5,23.29l-2.72.11a7,7,0,0,1-.25-1.62h-.18a8.52,8.52,0,0,1-5.68,2,5.83,5.83,0,0,1-4.42-1.47q-1.38-1.47-1.38-5.92,0-.63,0-1.88t0-1.71q0-2.58-.3-6.08l3.27-.12q-.21,3.39-.21,5.8,0,5.54.71,7.22t3.21,1.68a7.39,7.39,0,0,0,4.64-1.41q0-9.77-.18-13.17l3.16-.12q-.14,3.3-.14,9.14A75.42,75.42,0,0,0,50.5,23.29Z"/><path d="M71.07,14.23A11,11,0,0,1,68.84,21,7.33,7.33,0,0,1,62.66,24q-3.31,0-4.36-1.19h0q0,4.48.1,8H55.09q.4-4.6.4-11.37A73.64,73.64,0,0,0,54.62,6.5l3-.43.26,1.71h0q1.75-2,5.65-2a6.58,6.58,0,0,1,5.44,2.51A9.3,9.3,0,0,1,71.07,14.23Zm-3.28.47a7.29,7.29,0,0,0-1.37-4.46,4.51,4.51,0,0,0-3.85-1.85Q59.4,8.38,58,10.3q.28,5.91.28,10.14A5.57,5.57,0,0,0,62,21.64a4.94,4.94,0,0,0,4.33-2A8.31,8.31,0,0,0,67.78,14.69Z"/><path d="M91,14.45a9.36,9.36,0,0,1-2.58,7A8.42,8.42,0,0,1,82.35,24a7.86,7.86,0,0,1-5.62-2.23,8.27,8.27,0,0,1-2.35-6.29A9.48,9.48,0,0,1,77,8.38a8.41,8.41,0,0,1,6.09-2.55,7.78,7.78,0,0,1,5.61,2.26A8.42,8.42,0,0,1,91,14.45Zm-3,.62a8.79,8.79,0,0,0-1.38-4.88,4.72,4.72,0,0,0-7.82-.11,8.2,8.2,0,0,0-1.36,4.69,8.78,8.78,0,0,0,1.38,4.89,4.73,4.73,0,0,0,7.83.1A8.25,8.25,0,0,0,88,15.06Z"/><path d="M106.24,18.54q0,5.13-6.56,5.13a24,24,0,0,1-5.41-.58l.54-2.58a13.69,13.69,0,0,0,5,.88q3.83,0,3.83-2.18a2,2,0,0,0-.85-1.68,13.36,13.36,0,0,0-2.82-1.4,14.29,14.29,0,0,1-3.62-1.9A4.09,4.09,0,0,1,94.66,11a4.57,4.57,0,0,1,1.51-3.44,6.48,6.48,0,0,1,4.61-1.43,18.66,18.66,0,0,1,4.85.51l-.54,2.53a11.82,11.82,0,0,0-4.39-.76q-3.37,0-3.37,2a1.94,1.94,0,0,0,.76,1.59,12.62,12.62,0,0,0,3,1.47,14.42,14.42,0,0,1,3.52,1.83A4.16,4.16,0,0,1,106.24,18.54Z"/><path d="M18.63,68.87q0,7.95-11.06,7.95a25.43,25.43,0,0,1-7.18-.92l.75-3.37A21,21,0,0,0,8,73.76q7.3,0,7.3-4.12a4.41,4.41,0,0,0-1.89-3.57,27.22,27.22,0,0,0-5-2.64,20.9,20.9,0,0,1-5.48-3.2A7.09,7.09,0,0,1,3,50q2.47-2.23,7-2.23a24.43,24.43,0,0,1,7,.67l-.52,3.42a22.91,22.91,0,0,0-6.94-1Q4,50.8,4,54.49a3.62,3.62,0,0,0,1.59,3,28.72,28.72,0,0,0,4.55,2.28,22.88,22.88,0,0,1,5.8,3.31A7.44,7.44,0,0,1,18.63,68.87Z"/><path d="M43.21,65.28q0,5.5-3.16,8.58a10.29,10.29,0,0,1-7.43,3.08,9.61,9.61,0,0,1-6.86-2.73q-2.87-2.73-2.87-7.69,0-5.54,3.17-8.66a10.28,10.28,0,0,1,7.44-3.12,9.52,9.52,0,0,1,6.85,2.76Q43.2,60.27,43.21,65.28ZM39.49,66a10.75,10.75,0,0,0-1.69-6A5.39,5.39,0,0,0,33,57.46a5.4,5.4,0,0,0-4.76,2.47,10,10,0,0,0-1.67,5.74,10.73,10.73,0,0,0,1.69,6,5.41,5.41,0,0,0,4.82,2.6,5.37,5.37,0,0,0,4.75-2.48A10.08,10.08,0,0,0,39.49,66Z"/><path d="M63.79,72.82l-.21,2.88a9.43,9.43,0,0,1-4.66,1q-5.56,0-8.51-3.07a10.33,10.33,0,0,1-2.94-7.41,11.18,11.18,0,0,1,3.09-7.91A10.68,10.68,0,0,1,58.74,55a14,14,0,0,1,4.17.52l-.58,3.37A13.05,13.05,0,0,0,57.75,58a6,6,0,0,0-4.86,2.13,8,8,0,0,0-1.8,5.33,8.21,8.21,0,0,0,2.15,5.8,7.87,7.87,0,0,0,6.08,2.32A17.9,17.9,0,0,0,63.79,72.82Z"/><path d="M84.18,75.65l-3.37.13a8.41,8.41,0,0,1-.26-2h-.21a10.29,10.29,0,0,1-7.2,2.41,6.53,6.53,0,0,1-4.25-1.45A5,5,0,0,1,67.1,70.6a6.25,6.25,0,0,1,2.79-5.32q2.79-2,10.38-2.12A9.62,9.62,0,0,0,80.33,62q0-2.64-1.41-3.52a8.19,8.19,0,0,0-4.26-.88,26.6,26.6,0,0,0-6.64.84l.37-3a27,27,0,0,1,7.41-.92,9.62,9.62,0,0,1,5.91,1.58q2.08,1.58,2.08,5.38,0,1-.1,3.66t-.1,3.53A37.52,37.52,0,0,0,84.18,75.65Zm-3.8-3.71q-.11-3.27-.11-5.87a23.77,23.77,0,0,0-6.14.6q-3.52,1.07-3.52,4.1t4.13,2.92A8.52,8.52,0,0,0,80.37,71.94Z"/><path d="M93.78,75.78H89.65q.39-7.09.39-16a131.36,131.36,0,0,0-.62-14.2l4.36-.21q-.41,5.84-.41,14.42Q93.37,68.58,93.78,75.78Z"/><path d="M117.33,63.5q0,.9-.09,2.49l-14.76.26a7.74,7.74,0,0,0,2.43,5.25,8.13,8.13,0,0,0,5.87,2.12,22.75,22.75,0,0,0,6.12-.79l-.37,3a17.15,17.15,0,0,1-6.08.84q-5.59,0-8.52-3.05A10.33,10.33,0,0,1,99,66.2a12.62,12.62,0,0,1,2.67-8.07,8.69,8.69,0,0,1,7.19-3.38,8,8,0,0,1,6.31,2.45A9.17,9.17,0,0,1,117.33,63.5Zm-3.59,0q0-6-5-6t-6.08,6.27Z"/><path d="M135.93,70.28q0,6.27-8,6.27a29.39,29.39,0,0,1-6.62-.71l.67-3.16A16.73,16.73,0,0,0,128,73.76q4.68,0,4.68-2.66a2.42,2.42,0,0,0-1-2.05,16.38,16.38,0,0,0-3.45-1.71A17.43,17.43,0,0,1,123.79,65a5,5,0,0,1-2-4,5.58,5.58,0,0,1,1.85-4.2q1.85-1.75,5.63-1.75a22.82,22.82,0,0,1,5.93.62l-.67,3.09a14.46,14.46,0,0,0-5.37-.92q-4.13,0-4.13,2.38a2.37,2.37,0,0,0,.92,1.94A15.39,15.39,0,0,0,129.55,64a17.64,17.64,0,0,1,4.3,2.23A5.09,5.09,0,0,1,135.93,70.28Z"/><path d="M173.89,47.78q-.09,4.06-.13,7.58t0,6.57q0,14.4-11.37,14.39a13.65,13.65,0,0,1-5.08-.85,8.18,8.18,0,0,1-3.48-2.6,11.34,11.34,0,0,1-2-4.42,27.44,27.44,0,0,1-.63-6.29q0-3.18,0-6.76T151,47.78h4.08q-.26,8.19-.26,12.83a41,41,0,0,0,.37,6.09,10.88,10.88,0,0,0,1.3,3.92,5.37,5.37,0,0,0,2.35,2.22,8.62,8.62,0,0,0,3.61.66,9.09,9.09,0,0,0,3.74-.66,5.24,5.24,0,0,0,2.34-2.17,11.07,11.07,0,0,0,1.29-3.89,40.19,40.19,0,0,0,.39-6.22q0-2.28-.08-5.45t-.23-7.34Z"/><path d="M198.37,75.78h-3.86q.47-5.58.47-12.17,0-3.26-1.33-4.46a5.45,5.45,0,0,0-3.78-1.2,8.35,8.35,0,0,0-5.55,2.18q0,7.23.08,15.65h-3.86q.36-7.21.36-10.43a49,49,0,0,0-.93-9.63l3.73-.53.4,2.59h.17A9.87,9.87,0,0,1,191,54.94a8.47,8.47,0,0,1,5.45,1.56q1.93,1.56,1.93,5.54,0,.4,0,1.59t0,1.59Q198.29,68.76,198.37,75.78Z"/><path d="M208,75.78h-3.89q.3-4.3.3-9.82a60.68,60.68,0,0,0-.75-10.42L208,55q-.26,4.49-.26,11Q207.71,71.12,208,75.78Zm.9-26.53a2.78,2.78,0,0,1-.71,1.9,2.52,2.52,0,0,1-2,.81,2.15,2.15,0,0,1-1.71-.7,2.47,2.47,0,0,1-.61-1.69,2.67,2.67,0,0,1,.73-1.87,2.61,2.61,0,0,1,2-.79,2.1,2.1,0,0,1,1.67.7A2.41,2.41,0,0,1,208.91,49.25Z"/><path d="M232.29,76.64l-3.22.11a10.7,10.7,0,0,1-.17-2h-.24q-2.27,2.47-6.75,2.47a8,8,0,0,1-6.54-3,11,11,0,0,1-2.43-7.2,13,13,0,0,1,2.7-8.24,9.11,9.11,0,0,1,7.62-3.46q3.5,0,5,1.43h.17q0-5.36-.3-10.54l4.11-.15q-.41,5.5-.41,14.39Q231.84,69.52,232.29,76.64Zm-3.53-4.79q0-6.68-.37-12.87a6.58,6.58,0,0,0-4.34-1.44A6.35,6.35,0,0,0,218.63,60a9.86,9.86,0,0,0-1.8,6.07,8.79,8.79,0,0,0,1.71,5.5,5.63,5.63,0,0,0,4.74,2.23Q227.07,73.76,228.77,71.85Z"/><path d="M257.53,65.28q0,5.5-3.16,8.58a10.29,10.29,0,0,1-7.43,3.08,9.61,9.61,0,0,1-6.86-2.73q-2.87-2.73-2.87-7.69,0-5.54,3.17-8.66a10.28,10.28,0,0,1,7.44-3.12,9.52,9.52,0,0,1,6.85,2.76Q257.53,60.27,257.53,65.28Zm-3.72.75a10.75,10.75,0,0,0-1.69-6,5.77,5.77,0,0,0-9.56-.14,10,10,0,0,0-1.67,5.74,10.72,10.72,0,0,0,1.69,6,5.78,5.78,0,0,0,9.57.12A10.08,10.08,0,0,0,253.82,66Z"/><path d="M276.14,70.28q0,6.27-8,6.27a29.39,29.39,0,0,1-6.62-.71l.67-3.16a16.73,16.73,0,0,0,6.06,1.07q4.68,0,4.68-2.66a2.42,2.42,0,0,0-1-2.05,16.38,16.38,0,0,0-3.45-1.71A17.43,17.43,0,0,1,264,65a5,5,0,0,1-2-4,5.58,5.58,0,0,1,1.85-4.2q1.85-1.75,5.63-1.75a22.82,22.82,0,0,1,5.93.62l-.67,3.09a14.46,14.46,0,0,0-5.37-.92q-4.12,0-4.12,2.38a2.37,2.37,0,0,0,.92,1.94A15.39,15.39,0,0,0,269.76,64a17.64,17.64,0,0,1,4.3,2.23A5.09,5.09,0,0,1,276.14,70.28Z"/><path d="M12.26,97A5,5,0,0,1,10,101.45a11,11,0,0,1-6.07,1.48q-.48,0-.84,0,0,2.85.21,6.88H.79q.2-3.71.2-8.93,0-4.49-.2-8.07H2.66l1.72,0q1.42,0,2.41,0a6.37,6.37,0,0,1,4,1.14A3.76,3.76,0,0,1,12.26,97Zm-2.15.64q0-3.39-4.63-3.39a18.5,18.5,0,0,0-2.54.2Q3,96.6,3,101.14q.46,0,1.13,0Q10.11,101.17,10.11,97.64Z"/><path d="M27,103.13A7,7,0,0,1,25,108.4a6.31,6.31,0,0,1-4.56,1.89,5.9,5.9,0,0,1-4.21-1.67,6.2,6.2,0,0,1-1.76-4.72,7.11,7.11,0,0,1,1.94-5.31A6.3,6.3,0,0,1,21,96.67a5.84,5.84,0,0,1,4.21,1.69A6.32,6.32,0,0,1,27,103.13Zm-2.28.46a6.59,6.59,0,0,0-1-3.66,3.31,3.31,0,0,0-2.95-1.6,3.31,3.31,0,0,0-2.92,1.52,6.15,6.15,0,0,0-1,3.52,6.58,6.58,0,0,0,1,3.67,3.32,3.32,0,0,0,3,1.6,3.29,3.29,0,0,0,2.91-1.52A6.18,6.18,0,0,0,24.68,103.6Z"/><path d="M38,97.1l-.6,2.12a5.27,5.27,0,0,0-1.94-.41,3.12,3.12,0,0,0-3.26,2.39q0,6.14.08,8.58H29.95q.21-4.23.21-6.57a28.56,28.56,0,0,0-.63-6.06l2.34-.33a14.49,14.49,0,0,1,.25,2h.11a4.08,4.08,0,0,1,3.36-2.12A8.39,8.39,0,0,1,38,97.1Z"/><path class="cls-1" d="M53.7,142.16q0,10.86-8.24,16.24t-22.14,5.38q-1.76,0-3-.1,0,10.38.76,25.1H11.89q.71-13.52.71-32.57,0-16.38-.71-29.43H18.7q1.09,0,6.26-.14t8.79-.14q9.14,0,14.55,4.17A13.72,13.72,0,0,1,53.7,142.16Zm-7.89,3.16Q45.81,133,29,133a67.12,67.12,0,0,0-9.24.72q.33,7.8.33,24.31,1.67.1,4.12.1Q45.81,158.15,45.81,145.32Z"/><path class="cls-1" d="M103.61,188.89l-7.42.29a18.89,18.89,0,0,1-.67-4.4H95a23.19,23.19,0,0,1-15.46,5.36q-8.28,0-12-4T63.8,170q0-1.72.1-5.12t.1-4.64q0-7-.81-16.56l8.9-.33q-.57,9.24-.57,15.79,0,15.07,1.94,19.64t8.73,4.57q7.66,0,12.63-3.83,0-26.6-.48-35.84l8.61-.33q-.38,9-.38,24.88A205.21,205.21,0,0,0,103.61,188.89Z"/><path class="cls-1" d="M155,161.3q0,2-.19,5.55l-32.87.57a17.25,17.25,0,0,0,5.41,11.7q4.93,4.71,13.06,4.71A50.69,50.69,0,0,0,154,182.07l-.81,6.75q-4.69,1.87-13.54,1.87-12.44,0-19-6.79a23,23,0,0,1-6.53-16.56,28.09,28.09,0,0,1,6-18,19.34,19.34,0,0,1,16-7.54q9.23,0,14,5.46T155,161.3Zm-8,.1Q147,148,135.77,148q-11.48,0-13.54,14Z"/><path class="cls-1" d="M209.52,165a28.88,28.88,0,0,1-6,18.25q-6,7.73-16.42,7.73-8.84,0-12-3.17h-.28l-1.28,2h-7q.63-16.62.63-35.93A291.8,291.8,0,0,0,165.55,122l9.54-.48q-.48,8.28-.48,26.25h.29q4.71-5.43,14.93-5.43A17.52,17.52,0,0,1,204.12,149,24.49,24.49,0,0,1,209.52,165Zm-8.58,1a19.59,19.59,0,0,0-3.78-12.2,12.38,12.38,0,0,0-10.43-5q-8.61,0-12.35,5.22,0,17,.77,27.61a15.17,15.17,0,0,0,10.1,3.25q7.85,0,11.77-5.5A22.48,22.48,0,0,0,200.94,165.94Z"/><path class="cls-1" d="M229.75,189.78h-9.19q.86-15.79.86-35.7A292.48,292.48,0,0,0,220,122.45l9.71-.48q-.91,13-.91,32.11Q228.84,173.75,229.75,189.78Z"/><path class="cls-1" d="M278.89,188.94l-7.51.29a18.72,18.72,0,0,1-.57-4.45h-.48q-5.89,5.36-16,5.36a14.54,14.54,0,0,1-9.47-3.23q-4-3.23-4-9.21a13.91,13.91,0,0,1,6.22-11.84q6.22-4.47,23.11-4.71a21.43,21.43,0,0,0,.14-2.63q0-5.89-3.13-7.85t-9.5-2a59.26,59.26,0,0,0-14.79,1.87l.81-6.6a60.08,60.08,0,0,1,16.51-2.06q8.52,0,13.16,3.52t4.64,12q0,2.25-.22,8.16t-.21,7.87A83.56,83.56,0,0,0,278.89,188.94Zm-8.47-8.83q-.24-7.27-.24-13.06-9,0-13.69,1.34-7.85,2.39-7.85,9.14,0,6.51,9.19,6.51Q265.73,184,270.42,180.11Z"/><path class="cls-2" d="M117,217.78H115.4q.1-2,.1-4.12,0-2.47-.1-3.65l-2.14,1.07-.44-.82,3.38-2.49H117q-.09,3-.09,5.88Q116.92,215.67,117,217.78Z"/><path class="cls-2" d="M127.13,216.3a4.55,4.55,0,0,1-2,3.57,9.72,9.72,0,0,1-5.7,1.77l-.28-1.2a10.45,10.45,0,0,0,4.62-1.18,3,3,0,0,0,1.66-2.62,2.19,2.19,0,0,0-1.24-2.13,8.31,8.31,0,0,0-3.61-.62l.2-1.16a7.22,7.22,0,0,0,3.1-.58,1.76,1.76,0,0,0,1.21-1.58,1.4,1.4,0,0,0-.76-1.35,5.3,5.3,0,0,0-2.36-.4,9.51,9.51,0,0,0-2.1.21l.12-1.38a10.93,10.93,0,0,1,2.82-.26,4.34,4.34,0,0,1,2.74.76,2.24,2.24,0,0,1,1,1.8,2.89,2.89,0,0,1-2.26,2.9v.1a3.6,3.6,0,0,1,2.06,1.13A3.19,3.19,0,0,1,127.13,216.3Z"/><path class="cls-2" d="M142.74,217.61l-1.43,0a4.81,4.81,0,0,1-.08-.87h-.11a3.88,3.88,0,0,1-3,1.1,3.56,3.56,0,0,1-2.91-1.33,4.91,4.91,0,0,1-1.08-3.2,5.77,5.77,0,0,1,1.2-3.66,4,4,0,0,1,3.38-1.54,3.2,3.2,0,0,1,2.23.63H141q0-2.38-.13-4.68l1.83-.07q-.18,2.44-.18,6.39T142.74,217.61Zm-1.51-1.76q0-3-.17-5.85a3,3,0,0,0-2-.65,2.89,2.89,0,0,0-2.47,1.1,4.48,4.48,0,0,0-.82,2.76,4,4,0,0,0,.78,2.5,2.56,2.56,0,0,0,2.15,1A3.19,3.19,0,0,0,141.23,215.85Z"/><path class="cls-2" d="M153.4,212q0,.41,0,1.13l-6.71.12a3.52,3.52,0,0,0,1.1,2.39,3.7,3.7,0,0,0,2.67,1,10.36,10.36,0,0,0,2.78-.36l-.17,1.38a7.8,7.8,0,0,1-2.76.38,5.13,5.13,0,0,1-3.87-1.39,4.69,4.69,0,0,1-1.33-3.38,5.73,5.73,0,0,1,1.22-3.67,4,4,0,0,1,3.27-1.54,3.62,3.62,0,0,1,2.87,1.11A4.17,4.17,0,0,1,153.4,212Zm-1.63,0q0-2.74-2.29-2.74t-2.76,2.85Z"/><path class="cls-2" d="M168.12,217.78H166.4q.21-2.48.21-5.41a2.62,2.62,0,0,0-.59-2,2.43,2.43,0,0,0-1.68-.53,3.71,3.71,0,0,0-2.47,1q0,3.21,0,7h-1.71q.16-3.2.16-4.64a21.79,21.79,0,0,0-.41-4.28l1.66-.24.18,1.15h.08a4.39,4.39,0,0,1,3-1.26,3.76,3.76,0,0,1,2.42.69,3,3,0,0,1,.86,2.46q0,.18,0,.71t0,.71Q168.08,214.66,168.12,217.78Z"/><path class="cls-2" d="M179.74,212.86a5.2,5.2,0,0,1-1.44,3.9,4.68,4.68,0,0,1-3.38,1.4,4.37,4.37,0,0,1-3.12-1.24,4.59,4.59,0,0,1-1.3-3.5,5.27,5.27,0,0,1,1.44-3.94,4.67,4.67,0,0,1,3.38-1.42,4.33,4.33,0,0,1,3.12,1.25A4.68,4.68,0,0,1,179.74,212.86Zm-1.69.34a4.89,4.89,0,0,0-.77-2.71,2.62,2.62,0,0,0-4.35-.06,4.55,4.55,0,0,0-.76,2.61,4.88,4.88,0,0,0,.77,2.71,2.63,2.63,0,0,0,4.35.05A4.59,4.59,0,0,0,178.05,213.2Z"/><path class="cls-2" d="M189.76,208.78a27,27,0,0,1-1.92,4.48,25.36,25.36,0,0,0-1.92,4.52h-1.27a23.14,23.14,0,0,0-1.69-4.64,32.06,32.06,0,0,1-1.69-4.36h1.91a20.43,20.43,0,0,0,1.19,3.5,20.43,20.43,0,0,1,1.19,3.5h.08a20,20,0,0,1,1.13-3.37,16,16,0,0,0,1.13-3.63Z"/><path class="cls-2" d="M193.37,217.78h-1.77q.14-2,.14-4.46a27.6,27.6,0,0,0-.34-4.74l2-.26q-.12,2-.12,5Q193.24,215.66,193.37,217.78Zm.41-12.21a1.27,1.27,0,0,1-.32.86,1.15,1.15,0,0,1-.91.37,1,1,0,0,1-.78-.32,1.12,1.12,0,0,1-.28-.77,1.21,1.21,0,0,1,.33-.85,1.19,1.19,0,0,1,.92-.36,1,1,0,0,1,.76.32A1.1,1.1,0,0,1,193.78,205.57Z"/><path class="cls-2" d="M204,212q0,.41,0,1.13l-6.71.12a3.52,3.52,0,0,0,1.1,2.39,3.7,3.7,0,0,0,2.67,1,10.36,10.36,0,0,0,2.78-.36l-.17,1.38a7.8,7.8,0,0,1-2.76.38,5.13,5.13,0,0,1-3.87-1.39,4.69,4.69,0,0,1-1.33-3.38,5.73,5.73,0,0,1,1.22-3.67,4,4,0,0,1,3.27-1.54,3.62,3.62,0,0,1,2.87,1.11A4.17,4.17,0,0,1,204,212Zm-1.63,0q0-2.74-2.29-2.74t-2.76,2.85Z"/><path class="cls-2" d="M218.29,212.33a2.75,2.75,0,0,0-.52-2,2.48,2.48,0,0,0-1.72-.48,3.14,3.14,0,0,0-2.08,1q0,1.15,0,2.25,0,1.57.06,4.69h-1.71q.21-2.68.21-5.45a2.75,2.75,0,0,0-.52-2,2.4,2.4,0,0,0-1.67-.48,3.14,3.14,0,0,0-2.2,1q0,3,0,6.94h-1.71q.18-3.2.18-4.63a21.55,21.55,0,0,0-.42-4.27l1.66-.24.17,1.14h.09a3.73,3.73,0,0,1,2.72-1.25q2.23,0,2.87,1.25h.1a4.29,4.29,0,0,1,2.8-1.25,3.57,3.57,0,0,1,2.39.7,3.12,3.12,0,0,1,.81,2.46q0,.18,0,.71t0,.71q0,1.57,0,4.69h-1.71Q218.29,215.31,218.29,212.33Z"/><path class="cls-2" d="M231.4,212.22a5.78,5.78,0,0,1-1.2,3.65,3.93,3.93,0,0,1-3.28,1.55,3.42,3.42,0,0,1-2.4-.63h-.14l-.24,1h-1.48q.13-3.56.13-7.7a62.53,62.53,0,0,0-.34-6.82l2-.1q-.1,1.77-.1,5.63h.09a3.75,3.75,0,0,1,3-1.09,3.5,3.5,0,0,1,2.86,1.33A4.9,4.9,0,0,1,231.4,212.22Zm-1.68.78a4,4,0,0,0-.77-2.49,2.52,2.52,0,0,0-2.13-1,2.88,2.88,0,0,0-2.52,1.06q0,3.48.16,5.63a3.1,3.1,0,0,0,2.06.66,2.76,2.76,0,0,0,2.4-1.12A4.58,4.58,0,0,0,229.72,213Z"/><path class="cls-2" d="M239.6,208.56l-.44,1.54a3.83,3.83,0,0,0-1.41-.3,2.27,2.27,0,0,0-2.37,1.74q0,4.47.06,6.24h-1.72q.16-3.08.16-4.78a20.79,20.79,0,0,0-.46-4.41l1.7-.24a10.49,10.49,0,0,1,.18,1.43h.08a3,3,0,0,1,2.45-1.54A6.1,6.1,0,0,1,239.6,208.56Z"/><path class="cls-2" d="M248.81,212q0,.41,0,1.13l-6.71.12a3.52,3.52,0,0,0,1.1,2.39,3.7,3.7,0,0,0,2.67,1,10.36,10.36,0,0,0,2.78-.36l-.17,1.38a7.8,7.8,0,0,1-2.76.38,5.13,5.13,0,0,1-3.87-1.39,4.69,4.69,0,0,1-1.33-3.38,5.73,5.73,0,0,1,1.22-3.67,4,4,0,0,1,3.27-1.54,3.62,3.62,0,0,1,2.87,1.11A4.17,4.17,0,0,1,248.81,212Zm-1.63,0q0-2.74-2.29-2.74t-2.76,2.85Z"/><path class="cls-2" d="M266.47,217.78h-2.31a21,21,0,0,0-1.2-4h-5.48a19.89,19.89,0,0,0-1.18,4h-2.22a68.42,68.42,0,0,1,2.58-6.39,47.73,47.73,0,0,0,2.58-6.61h2.32A48.15,48.15,0,0,0,264,211.3,50.57,50.57,0,0,1,266.47,217.78Zm-3.91-5q-2.26-5.64-2.26-6h-.11q0,.3-2.34,6Z"/><path class="cls-2" d="M270.28,216.34a1.49,1.49,0,0,1-.39,1,1.35,1.35,0,0,1-1.07.44,1.1,1.1,0,0,1-.89-.38,1.37,1.37,0,0,1-.32-.91,1.42,1.42,0,0,1,.39-1,1.4,1.4,0,0,1,1.08-.42,1.1,1.1,0,0,1,.88.36A1.32,1.32,0,0,1,270.28,216.34Z"/><path class="cls-2" d="M281.93,216.23l-.13,1.46a9.05,9.05,0,0,1-2.62.36,6.52,6.52,0,0,1-5-1.84,6.41,6.41,0,0,1-1.69-4.5,6.79,6.79,0,0,1,1.88-4.8,6.61,6.61,0,0,1,5.07-2,7.12,7.12,0,0,1,1.86.26l-.27,1.55a6.8,6.8,0,0,0-2-.35,4.4,4.4,0,0,0-3.58,1.46,5.41,5.41,0,0,0-1.22,3.58,5.3,5.3,0,0,0,1.41,3.7,5,5,0,0,0,3.89,1.54A9.67,9.67,0,0,0,281.93,216.23Z"/></g></g></svg>