<svg xmlns="http://www.w3.org/2000/svg" xmlns:xlink="http://www.w3.org/1999/xlink" viewBox="0 0 163.9 164.48"><defs><style>.cls-1{fill:#54a6dd;}.cls-2{clip-path:url(#clip-path);}.cls-3{fill:#fff;}.cls-4{fill:#d66074;}.cls-5{fill:#ec6374;}</style><clipPath id="clip-path"><circle class="cls-1" cx="81.95" cy="81.95" r="81.95"/></clipPath></defs><title>Bivienda</title><g id="Capa_2" data-name="Capa 2"><g id="Capa_1-2" data-name="Capa 1"><g id="Bivienda"><circle class="cls-1" cx="81.95" cy="81.95" r="81.95"/><g class="cls-2"><path class="cls-3" d="M82.27,164.48c-8.15,0-16.76-1.16-24.92-1.17-6.41,0-10.28-3.89-10.3-10.3,0-5.09,0-10.17,0-15.26a3.33,3.33,0,0,1,1-2.39Q64.39,119,80.69,102.67c.93-.93,1.4-1,2.37,0q16.28,16.4,32.67,32.69a3,3,0,0,1,1,2.35c0,5.22,0,10.43,0,15.65,0,6-4,10-10.08,10C98.36,163.32,90.55,164.48,82.27,164.48Zm9.13-20.14c0-3,0-6,0-9,0-2.56-1.17-3.71-3.75-3.73q-5.76,0-11.52,0c-2.58,0-3.75,1.17-3.75,3.73q0,8.91,0,17.81c0,2.6,1.12,3.8,3.67,3.82q5.85.06,11.7,0c2.54,0,3.65-1.22,3.67-3.82C91.42,150.22,91.41,147.28,91.41,144.34Z"/><path class="cls-4" d="M81.89,96.71c-.4,0-.78.29-1.31.82Q64.41,113.81,48.15,130c-.42.42-.83.87-1.29,1.25a3.13,3.13,0,0,1-4.44-4.41c.3-.37.65-.7,1-1L78.66,90.54a4.55,4.55,0,0,1,3.23-1.34"/><path class="cls-5" d="M81.89,89.21a4.55,4.55,0,0,1,3.23,1.34l15.79,15.84c0-4.9,0-9.25,0-13.6s3.7-6.64,7.75-4.54c1.5.78,1.78,2.11,1.78,3.64,0,7.44,0,14.88,0,22.31a3.55,3.55,0,0,0,1.16,2.83c3.22,3.14,6.4,6.33,9.55,9.53,1.61,1.64,1.63,3.6.15,4.89a3.09,3.09,0,0,1-4.38-.24c-1.2-1.09-2.31-2.27-3.45-3.41Q98.28,112.65,83.17,97.48c-.52-.53-.91-.78-1.28-.78"/></g><rect class="cls-3" x="96.62" y="49.84" width="35.3" height="8.19" rx="4.09" ry="4.09"/><ellipse class="cls-3" cx="101.24" cy="51.79" rx="7.13" ry="5.2" transform="translate(-6.97 86.75) rotate(-45)"/><ellipse class="cls-3" cx="113.71" cy="50" rx="8.03" ry="7.64"/><path class="cls-3" d="M137.28,48.63c0,5.22-4,9.4-7.94,9.4-5.7,0-12.69-4.18-12.69-9.4s4.62-9.45,10.32-9.45S137.28,43.41,137.28,48.63Z"/></g></g></g></svg>