<?xml version="1.0" encoding="utf-8"?>
<!-- Generator: Adobe Illustrator 21.0.0, SVG Export Plug-In . SVG Version: 6.00 Build 0)  -->
<svg version="1.1" id="Capa_1" xmlns="http://www.w3.org/2000/svg" xmlns:xlink="http://www.w3.org/1999/xlink" x="0px" y="0px"
	 viewBox="0 0 163.9 163.9" style="enable-background:new 0 0 163.9 163.9;" xml:space="preserve">
<style type="text/css">
	.st0{fill:#529440;}
	.st1{fill:#A94954;}
	.st2{fill:none;stroke:#98AF21;stroke-width:4;stroke-miterlimit:10;}
	.st3{fill:#D6A380;stroke:#FCD5BA;stroke-width:4;stroke-miterlimit:10;}
	.st4{fill:#FFFFFF;stroke:#D87D3F;stroke-width:4;stroke-miterlimit:10;}
	.st5{fill:#D87D3F;}
	.st6{fill:#FFFFFF;}
	.st7{fill:none;stroke:#1490B2;stroke-miterlimit:10;}
	.st8{fill:none;stroke:#1490B2;stroke-width:4;stroke-miterlimit:10;}
	.st9{fill:#FCD5BA;}
</style>
<title>despensa</title>
<g id="Capa_2">
	<g id="Capa_1-2">
		<g id="Alimentos">
			<circle class="st0" cx="81.9" cy="81.9" r="81.9"/>
			<path class="st1" d="M112.1,62.5c-3.1-0.8-4.4,1.7-6.7,1.7c-3.3-0.6-4.2-2.8-7.2-1.6c-2.8,0.8-6.9,4.9-7.5,9
				c-0.3,1.3-0.4,2.7-0.2,4.1l30.3-0.1C121.5,70.6,116.1,62.3,112.1,62.5z"/>
			<path class="st2" d="M24.1,72.5"/>
			<path class="st3" d="M82.9,75.6c-2.7-5.1-8-10.4-14.2-15.8C57.3,49.9,44.9,45.4,41,49.9s2.1,15.8,13.3,25.7"/>
			<path class="st4" d="M120.5,75.8H45.7c-1.4,0-2.5,1.1-2.5,2.6v6.2c0,1.4,1.1,2.5,2.5,2.6h74.8c1.4,0,2.5-1.1,2.6-2.6v-6.2
				C123.1,77,121.9,75.8,120.5,75.8z"/>
			<path class="st5" d="M56.8,120.1L48.9,87h70.7l-7.2,30.5c0,0-1.1,6.4-3.2,6.4H60.6C58.5,124,56.8,122.3,56.8,120.1
				C56.8,120.1,56.8,120.1,56.8,120.1z"/>
			<path class="st6" d="M57.8,91.7H60c1.2,0,2.1,1,2.1,2.1v2.2c0,1.2-1,2.1-2.1,2.1h-2.2c-1.2,0-2.1-1-2.1-2.1v-2.2
				C55.7,92.6,56.6,91.7,57.8,91.7z"/>
			<path class="st6" d="M69.9,91.7h2.2c1.2,0,2.1,1,2.1,2.1v2.2c0,1.2-1,2.1-2.1,2.1h-2.2c-1.2,0-2.1-1-2.1-2.1v-2.2
				C67.8,92.6,68.8,91.7,69.9,91.7z"/>
			<path class="st6" d="M82,91.7h2.2c1.2,0,2.1,1,2.1,2.1v2.2c0,1.2-1,2.1-2.1,2.1H82c-1.2,0-2.1-1-2.1-2.1v-2.2
				C79.9,92.6,80.9,91.7,82,91.7z"/>
			<path class="st6" d="M94.1,91.7h2.2c1.2,0,2.1,1,2.1,2.1v2.2c0,1.2-1,2.1-2.1,2.1h-2.2c-1.2,0-2.1-1-2.1-2.1v-2.2
				C92,92.6,93,91.7,94.1,91.7z"/>
			<path class="st6" d="M106.3,91.7h2.2c1.2,0,2.1,1,2.1,2.1v2.2c0,1.2-1,2.1-2.1,2.1h-2.2c-1.2,0-2.1-1-2.1-2.1v-2.2
				C104.2,92.6,105.1,91.7,106.3,91.7z"/>
			<path class="st6" d="M63.4,102.1h2.2c1.2,0,2.1,1,2.1,2.1v2.2c0,1.2-1,2.1-2.1,2.1h-2.2c-1.2,0-2.1-1-2.1-2.1v-2.2
				C61.3,103.1,62.3,102.1,63.4,102.1z"/>
			<path class="st6" d="M75.6,102.2h2.2c1.2,0,2.1,1,2.1,2.1v2.2c0,1.2-1,2.1-2.1,2.1h-2.2c-1.2,0-2.1-1-2.1-2.1v-2.2
				C73.5,103.2,74.4,102.2,75.6,102.2z"/>
			<path class="st6" d="M87.7,102.2h2.2c1.2,0,2.1,1,2.1,2.1v2.2c0,1.2-1,2.1-2.1,2.1h-2.2c-1.2,0-2.1-1-2.1-2.1v-2.2
				C85.6,103.2,86.5,102.2,87.7,102.2z"/>
			<path class="st6" d="M99.9,102.1h2.2c1.2,0,2.1,1,2.1,2.1v2.2c0,1.2-1,2.1-2.1,2.1h-2.2c-1.2,0-2.1-1-2.1-2.1v-2.2
				C97.8,103.1,98.7,102.1,99.9,102.1z"/>
			<path class="st6" d="M69.9,112.5h2.2c1.2,0,2.1,1,2.1,2.1v2.2c0,1.2-1,2.1-2.1,2.1h-2.2c-1.2,0-2.1-1-2.1-2.1v-2.2
				C67.8,113.5,68.8,112.5,69.9,112.5z"/>
			<path class="st6" d="M82.1,112.5h2.2c1.2,0,2.1,1,2.1,2.1v2.2c0,1.2-1,2.1-2.1,2.1h-2.2c-1.2,0-2.1-1-2.1-2.1v-2.2
				C80,113.5,80.9,112.5,82.1,112.5z"/>
			<path class="st6" d="M94.1,112.5h2.2c1.2,0,2.1,1,2.1,2.1v2.2c0,1.2-1,2.1-2.1,2.1h-2.2c-1.2,0-2.1-1-2.1-2.1v-2.2
				C92,113.5,93,112.5,94.1,112.5z"/>
			<path class="st5" d="M98.3,40.3L98.3,40.3c-2.3-1-4.9,0-5.9,2.3c0,0-10.6,24.2-14.1,32.3l-0.7,1.5l5.3,0.1h3.3L100.1,45
				C100.9,43.2,100.1,41.1,98.3,40.3z"/>
			<path class="st7" d="M57,76.7"/>
			<path class="st7" d="M83.3,76.7"/>
			<path class="st8" d="M83.4,85.6"/>
			<path class="st1" d="M114.2,50.8c-1.4,0-2.7,0.4-3.9,1.2l-1.3,0.6c-0.2,0.1-0.4,0.3-0.6,0.5c-0.5,0.7-1,1.4-1.4,2.2
				c-0.7,1.3-0.9,2.8-0.8,4.3c1.1,0.1,2.2,0.1,3.3,0c0.4,0,0.9-0.2,1.3-0.3c0.4-0.2,0.7-0.5,1-0.8c0.9-0.7,1.6-1.6,2.3-2.5
				c0.9-1.5,1.3-3.4,0.9-5.1c0-0.1,0-0.1-0.1-0.2c-0.1,0-0.1,0-0.2,0l-1.1,0.1"/>
			<path class="st9" d="M49,60.3l5.4-9.2c0.4-0.7,1.3-0.9,1.9-0.5c0.1,0.1,0.2,0.1,0.3,0.2l3.8,3.8c0.6,0.6,0.5,1.5,0,2
				c-0.1,0.1-0.2,0.2-0.3,0.2l-9.2,5.4c-0.7,0.4-1.5,0.2-1.9-0.5C48.7,61.3,48.7,60.8,49,60.3z"/>
			<path class="st9" d="M68.3,71.1l3.3-5.6c0.4-0.7,1.3-0.9,1.9-0.5c0.1,0.1,0.2,0.1,0.3,0.2l2.3,2.3c0.6,0.6,0.5,1.5,0,2
				c-0.1,0.1-0.2,0.2-0.3,0.2L70.2,73c-0.7,0.4-1.5,0.1-1.9-0.5C68,72,68,71.5,68.3,71.1z"/>
			<path class="st9" d="M59,64.6l4.3-7.2c0.4-0.7,1.3-0.9,1.9-0.5c0.1,0.1,0.2,0.1,0.3,0.2l3,3c0.6,0.6,0.5,1.5,0,2
				c-0.1,0.1-0.2,0.2-0.3,0.2l-7.3,4.2c-0.7,0.4-1.6,0.1-1.9-0.6C58.8,65.5,58.8,65,59,64.6z"/>
		</g>
	</g>
</g>
</svg>
