<?xml version="1.0" encoding="utf-8"?>
<!-- Generator: Adobe Illustrator 21.0.0, SVG Export Plug-In . SVG Version: 6.00 Build 0)  -->
<svg version="1.1" id="Capa_1" xmlns="http://www.w3.org/2000/svg" xmlns:xlink="http://www.w3.org/1999/xlink" x="0px" y="0px"
	 viewBox="0 0 163.9 163.9" style="enable-background:new 0 0 163.9 163.9;" xml:space="preserve">
<style type="text/css">
	.st0{fill:#84D4C7;}
	.st1{fill:#CB8352;}
	.st2{fill:#D38F62;}
	.st3{fill:#F2F2F2;}
	.st4{fill:#FDFDFD;}
	.st5{fill:#FBFBFB;}
	.st6{fill:#FAFAFA;}
</style>
<title>Educacion</title>
<g id="Capa_2">
	<g id="Capa_1-2">
		<g id="Educacion">
			<circle class="st0" cx="81.9" cy="81.9" r="81.9"/>
			<path class="st1" d="M122.4,83.7c-1.8-3.8-1.5-8-0.3-12c0.6-1.6,0.7-3.3,0.1-4.9c-0.3-1.1-0.3-2.2,0.1-3.2
				c0.5-1.8-0.4-3.7-2.2-4.4c-0.4-0.1-0.9-0.2-1.3-0.1c-0.2,0.6-0.7,1.2-1.3,1.5c0.6-0.3,1.1-0.8,1.3-1.5c-1.5,0.2-2.7,1.3-3.1,2.8
				c-0.5,1.2-0.7,2.6-0.5,3.9c0.4,2.2-0.5,3.8-1.8,5.5C106,81,98.7,90.8,91.5,100.6c-0.3,0.5-0.9,0.9-1.5,1.1l0,0
				c-0.5,0.1-1,0-1.4-0.1c-12.5-3.3-25-6.7-37.5-10c-1.5-0.3-2.6-1.4-2.9-2.9c-0.1-0.6-0.2-1.1-0.2-1.7c-0.5-5,1.2-6.4,6-5.2
				c11,2.8,22,5.7,32.9,8.6c0.9,0.3,1.8,0.3,2.7,0.1L80,57.5c-2.6-0.5-5.2-1-7.8-1.6c-2.8-0.6-3-1.1-1.2-3.3c1-1.3,1.9-2.8,4-2.8
				l3,0.6l-3.4-12c-0.8,0.3-1.6,0.8-2.1,1.5C63,51.2,53.4,62.5,44.1,74c-4.6,5.8-4.3,12.5-1.5,19c0.5,1.1,0.5,2.3,0,3.4
				c-2.1,4.7-1.4,9.3,1.1,13.6c1.4,2.4,3.8,4.2,6.5,4.8c13.1,3.6,26.2,7.2,39.3,10.9c0.5,0.2,1.4,0.6,2.1,0.7c0,0,0,0,0,0
				c1.2,0.1,2.3-0.4,3-1.3c2.4-3.1,8.7-11.2,12.2-15.7c4.9-6.3,9.6-12.7,14.4-18.9C123,88.3,123.6,86.5,122.4,83.7z M112.2,91.2
				c-6.7,8.8-13.4,17.6-20.1,26.5c-0.3,0.4-0.7,0.8-1.2,1l-0.1,0.4l0.1-0.4c-0.5,0.2-1.1,0.1-1.7-0.1c-12.2-3.4-24.5-6.8-36.8-10.2
				c-3.4-0.9-5.4-6.4-3.5-9.4c0.6-1,1.3-0.6,2.1-0.4c11.8,3.1,23.6,6.3,35.4,9.4c3.6,1,5.2,1.5,6.6,0.9l0.2-0.8l-0.2,0.8
				c1.2-0.5,2.2-1.9,4.2-4.7c5.2-7,10.5-14,15.7-21c0.5-0.6,1-1.2,1.3-1.7C117.4,85.6,114.5,88.3,112.2,91.2z"/>
			<path class="st2" d="M118.8,46.1c-14-2.6-27.9-5.2-41.9-7.8c-0.8-0.2-1.6-0.1-2.4,0.1l3.4,12l5.1,1c4.8,1,9.6,1.9,14.3,2.9
				c2.1,0.5,2.2,1,1.1,2.8c-1.7,2.8-4,3.5-7.2,2.8c-3.7-0.8-7.5-1.6-11.3-2.4l9.5,33c0.2,0,0.3-0.1,0.5-0.2l0,0
				c0.7-0.3,1.4-0.9,1.8-1.5c8.9-11.3,17.7-22.7,26.6-34c0.1-0.3,0.2-0.5,0.4-0.7c-0.2,0.2-0.3,0.4-0.4,0.7l2.5-3.2
				C122.8,49,121.8,46.6,118.8,46.1z"/>
			<path class="st3" d="M89.5,90.4L89.5,90.4c-0.9,0.2-1.8,0.2-2.7-0.1c-11-2.9-22-5.8-32.9-8.6c-4.8-1.3-6.5,0.2-6,5.2
				c0,0.6,0.1,1.2,0.2,1.7c0.3,1.5,1.4,2.6,2.9,2.9c12.5,3.3,25,6.6,37.5,10c0.5,0.1,1,0.2,1.4,0.1V90.2
				C89.8,90.3,89.7,90.4,89.5,90.4z"/>
			<path class="st4" d="M118.4,54.8c-8.8,11.3-17.7,22.7-26.6,34c-0.5,0.6-1.1,1.2-1.8,1.5v11.4c0.6-0.2,1.1-0.5,1.5-1.1
				c7.2-9.8,14.5-19.5,21.9-29.2c1.3-1.7,2.2-3.3,1.8-5.5c-0.2-1.3,0-2.6,0.5-3.9c0.4-1.5,1.6-2.6,3.1-2.8
				C119.1,57.7,118,56,118.4,54.8z"/>
			<path class="st3" d="M86.4,108c-11.8-3.2-23.6-6.3-35.4-9.4c-0.8-0.2-1.4-0.6-2.1,0.4c-1.8,3,0.2,8.5,3.5,9.4
				c12.3,3.4,24.5,6.8,36.8,10.3c0.5,0.2,1.1,0.2,1.7,0.1l2.1-9.8C91.7,109.4,90.1,108.9,86.4,108z"/>
			<path class="st5" d="M114.2,81.5c-0.4,0.5-0.9,1.1-1.3,1.7c-5.2,7-10.5,14-15.7,21c-2,2.8-3,4.2-4.2,4.7l-2.1,9.8
				c0.5-0.2,0.9-0.6,1.2-1c6.7-8.9,13.4-17.7,20.1-26.5C114.5,88.3,117.4,85.6,114.2,81.5z"/>
			<path class="st3" d="M74.9,49.7c-2.1,0-3,1.5-4,2.8c-1.7,2.3-1.5,2.8,1.2,3.3c2.6,0.5,5.2,1,7.8,1.6l-2-7.1L74.9,49.7z"/>
			<path class="st6" d="M97.4,54.3c-4.8-1-9.6-2-14.3-2.9l-5.1-1l2,7.1c3.8,0.7,7.5,1.5,11.2,2.4c3.2,0.8,5.5,0.1,7.2-2.8
				C99.6,55.3,99.5,54.8,97.4,54.3z"/>
		</g>
	</g>
</g>
</svg>
