<svg xmlns="http://www.w3.org/2000/svg" viewBox="0 0 173.99 212.14"><defs><style>.cls-1{fill:#3e3c3d;}.cls-2{fill:#4d7dbc;}.cls-3{fill:#62b232;}.cls-4{fill:#f9c532;}.cls-5{fill:#8b4895;}.cls-6{fill:#ec6c27;}.cls-7{fill:#bc2a33;}.cls-8{fill:#1c4078;}.cls-9{fill:#a4a4a4;}.cls-10{fill:#f59d21;}.cls-11{fill:#3e74b9;}.cls-12{fill:#ffe66b;}.cls-13{fill:#da2d35;}.cls-14{fill:#b6d487;}.cls-15{fill:#c592c2;}</style></defs><title>Logo2</title><g id="Capa_2" data-name="Capa 2"><g id="Capa_1-2" data-name="Capa 1"><path class="cls-1" d="M0,136.48a4.16,4.16,0,0,1,.26-1.13c0-.11,0-.23.08-.33a5.55,5.55,0,0,1,6.7-3.62c.72.14.67.49.61,1s-.11,1-.84.8a5.1,5.1,0,0,0-.59-.09c-1.83-.26-3,.25-3.63,1.6a4,4,0,0,0,.79,4.53,3,3,0,0,0,.8.52c1.63.73,2.3.3,2.24-1.42a2.25,2.25,0,0,0,0-.6c-.4-1.22.24-1.39,1.25-1.32.64,0,.84.21.71,1.05a6.11,6.11,0,0,0,0,2c.24,1.3,0,1.76-1.22,1.93-3.88.58-5.52-.28-7-3.83,0,0-.08-.33-.09-.42A5.68,5.68,0,0,1,0,136.48Z"/><path class="cls-1" d="M0,164.62c1.06-.2,2.11.18,3.21-.18a2.11,2.11,0,0,1,2.54,1.5,3.59,3.59,0,0,1-.5,3.62c-.84,1.13-2,1.17-3.33.73,0,.63,0,1.17,0,1.72s.3,1.21-.77,1.2S.36,172.61.39,172a38.75,38.75,0,0,0-.13-6.34c0-.21.08-.5-.25-.59Zm4.41,2.71c0-.13,0-.28-.05-.44-.17-.9-.63-1.43-1.63-1.33s-.84.84-.83,1.5c0,.4,0,.79,0,1.19s-.16,1,.53,1.14A1.41,1.41,0,0,0,4,168.85,2.79,2.79,0,0,0,4.41,167.33Z"/><path class="cls-2" d="M96.72,212.14c-.15-.54-.24-1,.59-1a2.82,2.82,0,0,0,1-.36,1,1,0,0,0,.67-1.14c-.07-.49-.45-.71-.91-.83s-.83.11-.86-.41.54-.44.88-.56.79-.36.7-.83-.49-.55-.92-.61-.93.29-.89-.4.64-.47,1-.48c1.71,0,2.18.73,1.34,2.24-.19.33,0,.37.14.54,1.08,1.18.92,2.27-.48,3.08a16.24,16.24,0,0,1-1.81.78Z"/><path class="cls-3" d="M60,37.87a43.7,43.7,0,0,1,13.71-11,37.08,37.08,0,0,1,20.7-3.92c6.45.6,12.06,3.21,17.43,6.57A62.38,62.38,0,0,1,123,37.84a2.39,2.39,0,0,1,.63.93l-5.14-1.57a60.66,60.66,0,0,0-13.64-2.91C98.57,33.86,93,35.8,87.75,39A94,94,0,0,0,72.08,51.67c-.17.17-.36.32-.54.47L64.43,43.4Q62.19,40.64,60,37.87Z"/><path class="cls-4" d="M114.72,131.48a44.21,44.21,0,0,1-15.59,12,37.31,37.31,0,0,1-14.89,3.28,32.74,32.74,0,0,1-15.08-3.35,68.85,68.85,0,0,1-17-11.34,2,2,0,0,1-.74-1c2,.58,3.85,1.17,5.74,1.68a64.13,64.13,0,0,0,9.49,2.19,43.1,43.1,0,0,0,4.64.46c6.11,0,11.49-2.12,16.48-5.4a87,87,0,0,0,15.06-12.64,1.55,1.55,0,0,1,.4-.22c1.13,1.38,2.25,2.76,3.38,4.13q3.79,4.57,7.6,9.12C114.47,130.69,114.8,131,114.72,131.48Z"/><path class="cls-5" d="M112.36,37.63c9.49,1.48,17.93,5.07,24.64,12.16a36,36,0,0,1,9.92,24,87.35,87.35,0,0,1-.26,13.41,11.64,11.64,0,0,1-.83,3.88c-.65-2.2-1.22-4.15-1.81-6.1a61.44,61.44,0,0,0-4.49-11.45c-3.19-5.93-8.21-9.77-14.23-12.45a94.28,94.28,0,0,0-19.41-6c1-3.18,2-6.35,3-9.55a66.93,66.93,0,0,0,2.33-8.11h.41A.76.76,0,0,0,112.36,37.63Z"/><path class="cls-6" d="M62.38,131.91c-9.64-1.55-18.27-5.16-25-12.44a35,35,0,0,1-9.57-21.23,81.27,81.27,0,0,1,.6-18.52,5.56,5.56,0,0,1,.75-2c.53,2,1.05,4,1.6,5.92,1.49,5.34,3.13,10.62,6.44,15.19,3.19,4.41,7.59,7.29,12.44,9.52a94.22,94.22,0,0,0,18.1,6,4.12,4.12,0,0,1-.48,2.35c-1.07,3.09-2.12,6.18-3.12,9.29C63.48,127.93,62.43,129.78,62.38,131.91Z"/><path class="cls-7" d="M141.62,83.7a43.61,43.61,0,0,1,3,19.69,37,37,0,0,1-8,20.07,33.82,33.82,0,0,1-8.3,7.35,74.46,74.46,0,0,1-16,8c-.34.12-.68.22-1,.31s-.69.15-1.36.3l3.29-3.14a89.27,89.27,0,0,0,7.88-8.37c4.74-5.85,6.55-12.57,6.18-20A97.22,97.22,0,0,0,123.61,87c.31.06.53.24.94.15,2.4-.48,4.81-.89,7.23-1.27,3.08-.49,6.16-.94,9.2-1.66C141.32,84.17,141.59,84.1,141.62,83.7Z"/><path class="cls-8" d="M33.95,87.18c-2.43-6.34-3.85-12.85-3.28-19.67,1-11.29,5.79-20.47,15.09-27.1a71.57,71.57,0,0,1,16.4-8.81c.45-.17.91-.29,1.37-.42.14,0,.3,0,.66.22-1.69,1.62-3.42,3.2-5.07,4.86A65.69,65.69,0,0,0,53,43.45c-4.52,6.11-5.78,13-5.1,20.43A98.12,98.12,0,0,0,52,83.52a29.28,29.28,0,0,0-5.25,1C42.48,85.36,38.17,86,33.95,87.18Z"/><path class="cls-9" d="M116,176.66a12.82,12.82,0,0,1,4-2c6.66-1.61,12.26,1.69,13.77,8.42a15.36,15.36,0,0,1-3.86,14.65,11.05,11.05,0,0,1-13.44,1.65c-.36-.22-.67-.37-.86.11s-.72.63-1.27.62c-1.36,0-2.72-.06-4.08,0-.93.05-1.14-.28-1.11-1.16.28-7.23.33-14.46.27-21.69,0-4.11-.25-8.22-.68-12.31-.19-1.79-.18-1.78,1.68-1.86,1.52-.06,3-.11,4.54-.26,1-.11,1.22.31,1.14,1.22-.36,3.95-.16,7.9-.22,11.86A5.52,5.52,0,0,0,116,176.66Zm-.27,7.81h-.07q.24,4.85.47,9.69a1.21,1.21,0,0,0,.5,1c2.46,1.85,7.27,1,8.92-1.59a11.33,11.33,0,0,0,1.26-9.45c-1-3.72-3.28-5.18-7-4.87-3,.24-4.08,1.44-4.07,4.36C115.72,183.91,115.72,184.19,115.72,184.47Z"/><path class="cls-9" d="M31.07,199.45c0,.55-.12.71-.63.7-2,0-3.92,0-5.88,0-.79,0-.8-.39-.78-1,.09-2.27.21-4.55.21-6.83q0-10.62,0-21.23c0-1.4-.11-2.79-.2-4.19,0-.64.12-.93.84-.94,4.44,0,8.87-.22,13.3-.14A12.17,12.17,0,0,1,46.36,169,7,7,0,0,1,48.53,174c.19,3.45-.44,6.64-3.1,9.08a15.91,15.91,0,0,1-7.83,3.66,22.74,22.74,0,0,1-5.84.46c-.82,0-1,.26-1,1C30.8,190.54,31,198.05,31.07,199.45Zm2.84-17.07A12.13,12.13,0,0,0,39.24,181c2.31-1.26,2.81-3.34,2.53-5.72a4.58,4.58,0,0,0-3.43-4,15.79,15.79,0,0,0-6.74-.36c-.92.1-1.19.53-1.08,1.41a70.47,70.47,0,0,1,.23,7.89C30.77,182.42,30.76,182.42,33.91,182.38Z"/><path class="cls-10" d="M62.38,131.91c0-2.14,1.1-4,1.72-5.95,1-3.11,2.05-6.21,3.12-9.29a4.12,4.12,0,0,0,.48-2.35c2.41.31,4.83.54,7.21,1a66.15,66.15,0,0,0,7.87.74,93.58,93.58,0,0,0,13.3.16c1-.09,2-.71,3.14-.4a17,17,0,0,1-2.77,3,63.13,63.13,0,0,1-11.85,9.92,27.56,27.56,0,0,1-17.36,3.85A38.12,38.12,0,0,1,62.38,131.91Z"/><path class="cls-11" d="M33.95,87.18c4.22-1.15,8.53-1.81,12.81-2.69a29.28,29.28,0,0,1,5.25-1c2,4.86,4.09,9.7,6.52,14.37a74.7,74.7,0,0,0,6.3,10.86,11.88,11.88,0,0,1,1.73,2.16c-.15.07-.26.16-.34.14-4.88-1.19-9.81-2.18-14.47-4.17A30.9,30.9,0,0,1,34.61,89C34.38,88.38,34.17,87.78,33.95,87.18Z"/><path class="cls-12" d="M114.72,131.48c.08-.5-.25-.79-.53-1.13q-3.82-4.55-7.6-9.12c-1.14-1.37-2.26-2.75-3.38-4.13,1.34-1.73,2.64-3.5,4-5.18,2.61-3.15,4.94-6.51,7.23-9.89a57.85,57.85,0,0,0,4.8-8c.33-.7.53-1.47.79-2.2.1-.27.29-.56.57-.56s.27.41.33.66c.6,2.49,1.23,5,1.81,7.47a42.67,42.67,0,0,1,1,14.92,26.94,26.94,0,0,1-5.85,13.36C116.86,129,115.82,130.27,114.72,131.48Z"/><path class="cls-13" d="M141.62,83.7c0,.4-.29.47-.64.55-3,.73-6.12,1.18-9.2,1.66-2.42.38-4.83.79-7.23,1.27-.41.08-.63-.1-.94-.15A186.72,186.72,0,0,0,115.71,69c-1.61-3.12-3.11-6.3-5.53-8.92a.59.59,0,0,1-.19-.68,27.26,27.26,0,0,1,4.18,1.09A63.89,63.89,0,0,1,128,65.8c6.52,3.66,10.6,9.29,13.12,16.19C141.3,82.54,141.45,83.13,141.62,83.7Z"/><path class="cls-14" d="M60,37.87q2.23,2.77,4.46,5.53l7.11,8.75c-1.19,1.47-2.38,2.95-3.58,4.41a140.67,140.67,0,0,0-12.08,17A36.35,36.35,0,0,0,54,77.81a3.39,3.39,0,0,1-.72-1.57c-.54-2.56-1.15-5.11-1.65-7.68-1.26-6.49-1.66-13,.75-19.32A34,34,0,0,1,59,38.87C59.3,38.52,59.48,38,60,37.87Z"/><path class="cls-15" d="M111.17,37.48a66.93,66.93,0,0,1-2.33,8.11c-.94,3.19-2,6.36-3,9.55-2.33-.24-4.66-.5-7-.72-1.66-.16-3.33-.29-5-.4-4.54-.31-9.09-.31-13.64-.23a25.45,25.45,0,0,0-4.35.72c-.37.07-.73.34-1.19,0a27.15,27.15,0,0,1,3.24-3.61,64.5,64.5,0,0,1,9.75-8.8,27,27,0,0,1,15.15-5.15A37.26,37.26,0,0,1,111.17,37.48Z"/><path class="cls-9" d="M95,200.88a15,15,0,0,1-8.3-1.85,13.13,13.13,0,0,1-6-13.09,14.29,14.29,0,0,1,5.52-9.73c3.86-2.91,12.36-2.83,15.47.87a11.14,11.14,0,0,1,2.68,6.52c.09,1.27,0,2.56,0,3.84,0,.68-.17,1-.93,1-4.23.27-8.47.1-12.71.21-.76,0-1.52.14-2.27.11-1,0-1,.49-.8,1.22a7.61,7.61,0,0,0,6.87,5.6,26.59,26.59,0,0,0,8.31-.83c.9-.24,1.17,0,1.06.86s-.22,2.06-.28,3.1c0,.73-.46,1-1.11,1.2A28,28,0,0,1,95,200.88ZM90.13,185c2.07-.17,4.7-.18,7.33-.2.36,0,.8.14.91-.48a5.12,5.12,0,0,0-3.83-5.47,5.42,5.42,0,0,0-6.57,3.8C87.13,185,87.13,185,90.13,185Z"/><path class="cls-9" d="M68.89,186.4c0-3.32,0-6.63-.26-9.94-.06-.86.24-1.09,1.06-1.09,1.56,0,3.12-.07,4.67-.2,1-.08,1.32.2,1.26,1.23q-.41,7.12-.21,14.26a71.91,71.91,0,0,0,.61,8.47c.1.68,0,1-.82,1a23.46,23.46,0,0,0-4.31.18c-1,.17-1.15-.57-1.2-1.23-.09-1.29-.53-1.07-1.33-.49a12,12,0,0,1-9.44,2.07c-3.79-.67-5.56-2.65-6.15-6.48a36.54,36.54,0,0,1-.25-6.22,99.23,99.23,0,0,0-.41-11c-.15-1.57-.13-1.55,1.45-1.6s3.19-.11,4.79-.22c.75-.05,1,.21.92.95a68.94,68.94,0,0,0-.37,7.29,35,35,0,0,0,.48,8.23c.62,3.31,2.52,4.49,5.93,3.86.2,0,.39-.1.58-.14,2.87-.64,3-.8,3-3.68,0-.88,0-1.76,0-2.64S68.89,187.28,68.89,186.4Z"/><path class="cls-9" d="M173.49,184.07c-.22,2.83-.22,5.67-.2,8.5a32.16,32.16,0,0,0,.65,6.54c.18.82-.07,1.05-.88,1.05a21,21,0,0,0-3.95.16c-.86.16-1.42-.13-1.49-1-.09-1.16-.56-.79-1.2-.39a11.87,11.87,0,0,1-9.87,1.46,5.93,5.93,0,0,1-4.56-4.77,7.62,7.62,0,0,1,2.64-7.55c2.13-1.82,4.73-2.39,7.4-2.79a27.66,27.66,0,0,1,4.06-.27c.63,0,.91-.21.95-.9.14-2.87-1.13-4.28-4-4.61a27.06,27.06,0,0,0-8.91.63c-.9.2-1.18,0-1.06-.88s.22-1.9.29-2.86a1.09,1.09,0,0,1,.93-1.06,20.51,20.51,0,0,1,4.12-.72c3.38-.21,6.76-.61,10.09.49a6.63,6.63,0,0,1,4.7,5.54A11.84,11.84,0,0,1,173.49,184.07Zm-6.44,7.73h0c0-.8,0-1.6,0-2.4,0-.35,0-.79-.48-.79-2.58,0-5.15.09-7.29,1.77a3.43,3.43,0,0,0-1,3.84,2.75,2.75,0,0,0,2.53,1.89,8.82,8.82,0,0,0,4.36-.41c1.86-.61,2-.79,1.93-2.7C167.05,192.6,167.06,192.2,167.06,191.8Z"/><path class="cls-9" d="M146.71,166.5c-.45,7.79-.31,15.58-.25,23.37,0,3.19.19,6.38.33,9.58,0,.56-.16.7-.66.7-1.92,0-3.84,0-5.76,0-.88,0-.71-.57-.68-1.06.2-3.31.18-6.63.26-9.94.13-5.39.1-10.78,0-16.17-.08-3-.32-6-.6-9,0-.54,0-.82.59-.84q3-.11,6-.28c.65,0,.93.08.83.85A21.65,21.65,0,0,0,146.71,166.5Z"/><path class="cls-10" d="M31.69,121.75a8,8,0,0,1-8.26,8.11,8.26,8.26,0,0,1-8.16-8.17,8.38,8.38,0,0,1,8.8-8.3C28.41,113.43,31.69,117,31.69,121.75Z"/><path class="cls-13" d="M143,122.36a8,8,0,0,1,8.06-8.19,8.15,8.15,0,0,1,8.27,8.15,8.25,8.25,0,0,1-8.17,8.17A8.14,8.14,0,0,1,143,122.36Z"/><path class="cls-14" d="M88.88,16.33a8.16,8.16,0,1,1,8.26-8.19A8.1,8.1,0,0,1,88.88,16.33Z"/><path class="cls-11" d="M23.86,55.74a8,8,0,0,1-8.07-8.19,8.14,8.14,0,0,1,8.15-8.15,8.26,8.26,0,0,1,8.18,8.3A8.13,8.13,0,0,1,23.86,55.74Z"/><path class="cls-15" d="M159.86,47.38a8,8,0,0,1-8.14,8.07,8.12,8.12,0,0,1-8.19-8.21,8.16,8.16,0,1,1,16.33.13Z"/><path class="cls-12" d="M95.11,159.26c.36,4.67-3.66,7.85-8,8-4.68.12-7.77-3.67-8-8.31-.2-4.26,4.28-7.74,8-7.84S95.57,154.69,95.11,159.26Z"/><path class="cls-1" d="M120.72,150.47c0-1.24,0-2.48,0-3.72,0-.69.18-.86.86-.87,1.94,0,2,0,1.87,2-.12,2.55.21,5.12-.28,7.65a5.65,5.65,0,0,1-8.78,3.58,5,5,0,0,1-2-3.89c-.33-2.87-.13-5.75-.26-8.62,0-.54.18-.65.68-.67,2.24-.12,2.23-.13,2.2,2.13s-.16,4.4,0,6.59,1.34,3.37,3.33,3.13a2.37,2.37,0,0,0,2.18-1.9A18.75,18.75,0,0,0,120.72,150.47Z"/><path class="cls-1" d="M149.72,149.8a20.23,20.23,0,0,0-.15-4c-.11-.76.07-1.05.9-1.07,2,0,2-.09,1.91,1.89-.15,4-.07,7.9,0,11.85,0,.35.32,1-.18,1-.71.11-1.63.44-2.13-.13-.33-.38-.37-.36-.72-.18-3.22,1.64-6.17.15-6.75-3.41s1.89-6.74,5.25-6.54A5,5,0,0,1,149.72,149.8Zm.2,4.74h0c0-.76-.07-1.51-.1-2.27a.85.85,0,0,0-.45-.88,2.79,2.79,0,0,0-3.17.6,4.69,4.69,0,0,0-.09,5.06,2.54,2.54,0,0,0,2.92.72c1.08-.32.95-1.11.93-1.91C149.91,155.42,149.92,155,149.92,154.55Z"/><path class="cls-1" d="M6,145.62c.56,0,1.12.07,1.68.08,1.09,0,1.47.38,1.23,1.58-.19.93-.53,1-1.24.75a7.69,7.69,0,0,0-3.21-.15,1.35,1.35,0,0,0-1.33,1A1.38,1.38,0,0,0,4,150.45c1,.51,2.11.95,3.14,1.47a4.44,4.44,0,0,1,2.56,3,3.66,3.66,0,0,1-2.29,4.46,11,11,0,0,1-6.72.21c-1.19-.3-.18-1.17-.23-1.77s.34-.65.87-.48a9.37,9.37,0,0,0,3.92.29c.71-.07,1.49-.17,1.69-1.06a1.62,1.62,0,0,0-1-1.86c-1-.53-2-1-3-1.49a4,4,0,0,1-2.58-3.59c0-2.17,1.33-3.62,3.82-3.93a14.56,14.56,0,0,1,1.8,0Z"/><path class="cls-1" d="M22,154.28A5.43,5.43,0,0,1,16.53,160a5,5,0,0,1-5.21-5.2,5.48,5.48,0,0,1,5.48-5.74A5,5,0,0,1,22,154.28Zm-2.78.37c0-2.08-1.07-3.59-2.56-3.61s-2.6,1.52-2.52,3.7c.08,1.95,1.17,3.34,2.6,3.31S19.2,156.6,19.2,154.65Z"/><path class="cls-1" d="M60.56,159.86c-2.42.12-4.44-.58-5.5-2.87a5.59,5.59,0,0,1,.85-6.17,5.27,5.27,0,0,1,5.91-1.34c1.66.67,2.46,2.29,2.35,4.56,0,.65-.2.9-.89.9-1.72,0-3.44.08-5.15.07-.79,0-.88.25-.58.9a2.94,2.94,0,0,0,2.72,1.84c.87,0,1.75-.12,2.62-.17.37,0,1-.48,1,.17s.37,1.53-.67,1.8A9.2,9.2,0,0,1,60.56,159.86Zm-1.05-6.41v-.06a11.92,11.92,0,0,1,1.32,0c1,.11,1-.39.75-1.07A1.78,1.78,0,0,0,59.93,151a2.05,2.05,0,0,0-2.2,1.11c-.2.38-.54.82-.29,1.22s.73.11,1.11.14S59.19,153.45,59.51,153.45Z"/><path class="cls-1" d="M164.73,154.31a5.31,5.31,0,0,1-5.32,5.7,4.92,4.92,0,0,1-5.08-5.17,5.32,5.32,0,0,1,5.34-5.68A4.83,4.83,0,0,1,164.73,154.31Zm-2.71.31c0-2.11-1.07-3.55-2.58-3.51s-2.6,1.75-2.4,3.77,1.23,3.22,2.6,3.18S162,156.6,162,154.62Z"/><path class="cls-1" d="M39,151.57c-.09-1.88,0-2,1.62-2.22a13.82,13.82,0,0,1,3.71-.06,2.81,2.81,0,0,1,2.78,2.9c.16,2.31-.21,4.64.22,6.94.06.3,0,.53-.33.45-.73-.19-1.64.57-2.24-.45-.21-.37-.48,0-.7.13a5.45,5.45,0,0,1-2.54.58,2.91,2.91,0,0,1-3-2,3.22,3.22,0,0,1,1.57-3.47,8,8,0,0,1,3.21-.85c.46-.05,1.27.31,1.28-.61a1.4,1.4,0,0,0-1.19-1.55A11.72,11.72,0,0,0,39,151.57Zm5.57,4.72c-.19-.4.52-1.43-.85-1.34-1.76.12-2.79.74-2.74,1.84s.87,1.22,1.7,1.17C44.08,157.89,44.86,157.61,44.57,156.28Z"/><path class="cls-1" d="M128.49,150.52a5.42,5.42,0,0,1,3.86-1.25,2.87,2.87,0,0,1,3,3c.08,2.23,0,4.48,0,6.71,0,.56-.23.63-.71.65-2,.1-2,.12-1.95-1.83q0-2.28,0-4.55a1.61,1.61,0,0,0-1.2-1.73,3.06,3.06,0,0,0-2.71.61c-.31.24-.17.59-.18.9,0,1.88,0,3.76,0,5.63,0,.8-.22,1.08-1,1a3.06,3.06,0,0,0-.84,0c-.7.09-.95-.1-.92-.89a34.74,34.74,0,0,0-.23-8.37c-.12-.58.13-.76.59-.74C127.13,149.64,128.3,148.76,128.49,150.52Z"/><path class="cls-1" d="M68.63,159.88l-1.87-.12c-.91,0-1.28-.35-1.06-1.4.18-.85.45-.92,1.16-.7a6.27,6.27,0,0,0,3.08.11c.35-.07.72-.19.82-.6a.89.89,0,0,0-.5-1c-.51-.31-1.05-.55-1.58-.83a13.38,13.38,0,0,1-1.69-.89,2.74,2.74,0,0,1,.53-4.84,8.09,8.09,0,0,1,4.72-.24c1,.16.35.94.35,1.45s-.26.77-.83.56a6.1,6.1,0,0,0-2.61-.19.85.85,0,0,0-.3,1.67c.76.35,1.55.63,2.3,1,1.61.76,2.22,1.76,2.06,3.27-.14,1.36-1,2.18-2.76,2.55A16.93,16.93,0,0,1,68.63,159.88Z"/><path class="cls-1" d="M168.94,159.87c-.5,0-1.1-.11-1.7-.13-.93,0-1.07-.51-.91-1.33s.33-1.07,1.13-.75a4.8,4.8,0,0,0,2.13.21c.66,0,1.53.07,1.68-.78s-.67-1.08-1.27-1.38-.94-.42-1.41-.65c-1.76-.87-2.39-1.87-2.11-3.32s1.5-2.41,3.35-2.49c.72,0,1.44,0,2.15,0,1.07,0,1.46.39,1.13,1.53-.18.61-.3.82-.91.6a5.43,5.43,0,0,0-2.13-.22c-.53,0-1.1.09-1.25.7s.37.92.84,1.14,1.18.48,1.76.75c1.76.8,2.5,1.91,2.29,3.37s-1.23,2.35-3.12,2.63C170.08,159.85,169.55,159.84,168.94,159.87Z"/><path class="cls-1" d="M29,159.91c-3.36-.07-5.57-2.07-5.62-5.13A5.43,5.43,0,0,1,29,149.21c.36,0,.72,0,1.08,0,1.28.08,1.75,1,1.05,2.06-.33.52-.8.08-1.18,0-2-.32-3.29.39-3.72,2.1a3.34,3.34,0,0,0,3.64,4.32,2.12,2.12,0,0,1,.71-.07c.41.13,1.07-.67,1.16.08s.33,1.79-1,1.94Z"/><path class="cls-1" d="M49.93,152.09c-.1-2.19-.17-4.39-.33-6.58,0-.66.12-.8.74-.83,2.25-.13,2.26-.16,2.18,2.13-.15,3.87-.11,7.75.06,11.62,0,.92-.17,1.33-1.14,1.17a2.74,2.74,0,0,0-.84,0c-.74.11-.93-.17-.91-.92.06-2.19,0-4.39,0-6.59Z"/><path class="cls-1" d="M26.17,141.19a26.12,26.12,0,0,0,0,2.72c.1.94-.42.89-1.07.92s-1-.09-.94-.9a57.25,57.25,0,0,0-.13-8.74c0-.33-.39-.9.18-1s1.21-.5,1.56,0,.54.15.79,0a3.16,3.16,0,0,1,4.72,2.52C31.86,140.06,29.38,142.26,26.17,141.19Zm0-3.46h0c0,.36,0,.71,0,1.07,0,1.2.53,1.62,1.71,1.31s1.39-1.21,1.44-2.21a2.23,2.23,0,0,0-1.18-2.5c-1.2-.51-2.05.17-2,1.5C26.13,137.17,26.13,137.45,26.13,137.73Z"/><path class="cls-1" d="M32.38,137.78a3.8,3.8,0,0,1,4-4,3.49,3.49,0,0,1,3.54,3.91,3.74,3.74,0,0,1-3.91,3.9A3.48,3.48,0,0,1,32.38,137.78Zm5.56,0a2.8,2.8,0,0,0-.32-1.51,1.58,1.58,0,0,0-2.74-.38,3.34,3.34,0,0,0,.17,3.9,1.55,1.55,0,0,0,2.24,0A2.56,2.56,0,0,0,37.94,137.73Z"/><path class="cls-1" d="M22.3,137.2c0,1,.1,2,.12,3,0,.37.36.89-.09,1.08s-1.18.32-1.48,0-.6-.24-.95-.08c-2.45,1.12-4,.19-4.14-2.45-.06-1.28,0-2.55-.13-3.83s.75-.64,1.23-.73.94-.05.83.71a14,14,0,0,0,0,3.94c.14,1,.67,1.26,1.58,1.19s1.22-.49,1.15-1.4c-.09-1.23,0-2.48-.07-3.71s.73-.65,1.22-.74c.65-.13.82.16.76.79s0,1.52,0,2.28Z"/><path class="cls-1" d="M36.42,154.46c0,1.4-.05,2.8,0,4.19,0,.72-.09,1-.87,1-2,0-2,0-1.89-1.91a38.24,38.24,0,0,0-.2-7.29c-.09-.7.15-.8.72-.87,2.23-.28,2.22-.29,2.13,1.93,0,1,0,2,0,3Z"/><path class="cls-1" d="M140.63,154.49c0,1.44,0,2.88,0,4.32,0,.66-.18.88-.8.78h-.12c-1.81,0-1.78,0-1.76-1.78a39,39,0,0,0-.18-6.94c-.16-.94.16-1.24,1.06-1.32,1.81-.16,1.79-.2,1.74,1.59,0,1.12,0,2.24,0,3.36Z"/><path class="cls-1" d="M44.53,133.88c.13,0,.57,0,1,.08.61.08.46.49.38.9s-.07.76-.71.57a6,6,0,0,0-1.66-.11c-.33,0-.66.1-.74.48s.17.6.47.74c.54.25,1.1.47,1.64.72a2.12,2.12,0,0,1,1.4,2.38,2.08,2.08,0,0,1-1.86,1.76,7.66,7.66,0,0,1-2.62.09c-.64-.07-1-.23-.84-1s.61-.51,1-.42a4.94,4.94,0,0,0,1.91,0,.71.71,0,0,0,.63-.49.65.65,0,0,0-.38-.69c-.49-.27-1-.5-1.49-.75-1.3-.64-1.84-1.46-1.62-2.48a2.41,2.41,0,0,1,2.54-1.77Z"/><path class="cls-1" d="M12.76,167.37a3,3,0,0,1-3.05,3.25,2.83,2.83,0,0,1-2.88-3A3,3,0,0,1,10,164.35,2.74,2.74,0,0,1,12.76,167.37Zm-4.36.11c0,1.2.58,2,1.43,2s1.44-.85,1.42-2-.65-2-1.46-2S8.38,166.3,8.4,167.48Z"/><path class="cls-1" d="M11.78,134.88c.58-.58,1.06-1,1.76-1,.48,0,1.27-.22,1.2.64,0,.59,0,1.49-1.21,1.19-1.07-.26-1.68.42-1.69,1.59s0,2.23,0,3.35-.68.62-1.14.68-.93,0-.85-.72a20.28,20.28,0,0,0-.16-6c-.07-.37,0-.54.38-.53C10.75,134.15,11.6,133.56,11.78,134.88Z"/><path class="cls-2" d="M115.88,206.4c0,1.21,0,2.07,0,2.93,0,.42.14.93-.59.9s-.51-.48-.51-.86c0-1.32,0-2.64,0-4,0-.35-.23-.85.41-.94a1,1,0,0,1,1.18.55,12,12,0,0,0,2,2.68c0-.78,0-1.56,0-2.34,0-.42-.14-.92.59-.9s.52.47.52.85c0,1.36,0,2.72,0,4.08,0,.32.17.76-.4.83a.9.9,0,0,1-1-.49C117.44,208.7,116.75,207.7,115.88,206.4Z"/><path class="cls-2" d="M143.46,208.45c0,.44,0,.88,0,1.32s-.34.45-.68.46-.48-.18-.48-.52c0-.6,0-1.2,0-1.8s-.06-1.08-.8-1.06-.68.53-.69,1,0,1.12,0,1.68-.08.68-.59.69-.59-.25-.57-.67c0-.64,0-1.28,0-1.92a.72.72,0,0,0-.81-.81c-.6,0-.73.36-.72.86s0,1.28,0,1.92c0,.47-.21.62-.66.62s-.62-.25-.57-.68a10.29,10.29,0,0,0-.08-3c-.08-.42.21-.72.52-.58,1,.47,2.14-.59,3.13.22.09.08.37,0,.55-.09,1.77-.52,2.4-.07,2.41,1.73,0,.2,0,.4,0,.6Z"/><path class="cls-2" d="M159.12,210.12c.63-1.73,1.27-3.41,1.84-5.11.2-.58.59-.54,1-.55s.83,0,1,.59c.44,1.45,1,2.88,1.42,4.32.08.26.51.73-.16.82-.42.06-1,.26-1.11-.5-.11-.95-.63-1.21-1.55-1.15-.62,0-.9.28-1,.81C160.55,210.4,159.92,210.31,159.12,210.12Zm2.74-4.71c-.25.69-.43,1.13-.55,1.58-.06.23-.35.56,0,.71a1.43,1.43,0,0,0,.92,0c.35-.13.16-.47.09-.72C162.22,206.51,162.07,206.06,161.86,205.41Z"/><path class="cls-2" d="M144.46,207.07c0-.8,0-1.59,0-2.39,0-.52.17-.71.68-.71s.58.34.52.72c-.16,1,.09,1.42,1.27,1.25s1.83,1,1.76,2.22a2.2,2.2,0,0,1-2.19,2.21c-2-.12-2-.12-2-2.22,0-.36,0-.72,0-1.08Zm1.18,1.05c.18.43-.39,1.35.71,1.36.92,0,1.06-.68,1.07-1.41s-.2-1.32-1-1.32S145.63,207.46,145.64,208.13Z"/><path class="cls-2" d="M107,207.12c0,.36,0,.72,0,1.07,0,1.75,0,1.75-1.66,2.05-1.42.26-2.29-.34-2.45-1.68s.67-2.69,2-2.65c.89,0,1-.32.92-1,0-.42-.15-.89.57-.91s.61.44.61.87q0,1.13,0,2.27Zm-1,1c-.17-.46.27-1.43-.81-1.42-.86,0-1.05.71-1,1.45s.2,1.28,1,1.31S106,208.87,106,208.14Z"/><path class="cls-1" d="M14,167.94c-.07-.83-.11-1.67-.2-2.5s.74-1.36,1.16-.86c.58.69.82.15,1.2,0a1.42,1.42,0,0,1,1.38,0c.47.28,0,.64,0,1,0,.51-.38.37-.69.34-1.1-.11-1.52.45-1.46,1.5,0,.76,0,1.52,0,2.27s-.26.76-.83.77-.73-.24-.69-.78,0-1.12,0-1.68Z"/><path class="cls-2" d="M124.83,208.09a2.25,2.25,0,0,1-2.2,2.34,2.07,2.07,0,0,1-2.16-2.2,2.17,2.17,0,0,1,2.27-2.36A2,2,0,0,1,124.83,208.09Zm-1.18,0c-.05-.69-.17-1.45-1.06-1.41s-.94.74-.93,1.41.15,1.35,1,1.36S123.61,208.82,123.65,208.13Z"/><path class="cls-2" d="M134.26,205.88a1.59,1.59,0,0,1,1.7.88c.54,1.06.26,1.52-.92,1.54a1.87,1.87,0,0,0-.48,0c-.36.11-1-.3-1,.34s.56.7,1.05.79c.15,0,.32,0,.48,0,.34,0,.87-.45,1,.19s-.58.65-1,.7a2.38,2.38,0,0,1-2.45-.88,2.26,2.26,0,0,1-.16-2.38A1.84,1.84,0,0,1,134.26,205.88Zm0,1.76c.18-.2.77.22.7-.42a.66.66,0,0,0-.8-.55c-.38,0-.75.23-.73.64S134,207.55,134.3,207.64Z"/><path class="cls-2" d="M170.78,209.31c.28.1.83-.37.91.31s-.53.71-1,.73a3,3,0,1,1,.07-5.92c.34,0,.62.05.62.52s-.3.5-.7.49c-1.45,0-2,.54-2,1.85S169.38,209.31,170.78,209.31Z"/><path class="cls-2" d="M111.07,209.45c.09,0,.55-.39.66.17s-.46.63-.87.69a2.37,2.37,0,0,1-2.64-.94,2.3,2.3,0,0,1,.12-2.7,2.05,2.05,0,0,1,2.36-.73,1.5,1.5,0,0,1,1.13,1.4c.09.59,0,1.05-.77,1a1.29,1.29,0,0,0-.48,0c-.45.12-1.3-.32-1.31.31C109.27,209.48,110.16,209.45,111.07,209.45Zm-1.14-1.82c.28-.11.8.2.8-.36,0-.38-.34-.6-.75-.6s-.82.24-.8.68S109.66,207.53,109.93,207.62Z"/><path class="cls-2" d="M155.92,209.44c.14,0,.61-.39.72.17s-.45.65-.87.71a2.44,2.44,0,0,1-2.65-1,2.29,2.29,0,0,1,.13-2.7,2.05,2.05,0,0,1,2.36-.73,1.5,1.5,0,0,1,1.13,1.4c.09.59,0,1.05-.78,1a1.3,1.3,0,0,0-.48,0c-.46.12-1.31-.31-1.31.3C154.17,209.43,155,209.48,155.92,209.44Zm-1.08-1.78c.2-.23.76.22.8-.35,0-.38-.32-.62-.72-.64s-.82.18-.84.64S154.54,207.52,154.84,207.65Z"/><path class="cls-1" d="M35.08,148.13a1.46,1.46,0,0,1-1.56-1.57,1.76,1.76,0,0,1,1.85-1.77,1.55,1.55,0,0,1,1.58,1.6A1.77,1.77,0,0,1,35.08,148.13Z"/><path class="cls-2" d="M127.61,208.5c.19-.64.41-1.27.58-1.92.12-.49.42-.7.87-.56s.24.57.12.87c-.35.93-.75,1.85-1.09,2.79a.73.73,0,0,1-.79.56.71.71,0,0,1-.78-.57c-.32-.94-.68-1.88-1-2.83-.08-.26-.43-.65.06-.8s.9-.19,1.09.4.43,1.35.65,2Z"/><path class="cls-1" d="M141.13,146.41a1.77,1.77,0,0,1-1.8,1.82,1.56,1.56,0,0,1-1.56-1.61,1.7,1.7,0,0,1,1.75-1.72A1.45,1.45,0,0,1,141.13,146.41Z"/><path class="cls-2" d="M149.52,208.38c0-.08,0-.16,0-.24,0-2.25,0-2.25,2.15-2.24.28,0,.64,0,.63.36s0,.76-.43.73c-1.48-.12-1.18.92-1.2,1.75,0,.32,0,.63,0,1s-.22.53-.6.54-.59-.13-.58-.55,0-.87,0-1.31Z"/><path class="cls-2" d="M95.69,208c0,.51,0,1,0,1.54s-.06.68-.57.69-.61-.22-.59-.65c0-.59,0-1.19,0-1.78,0-.22.07-.47-.15-.65s-1,.1-.57-.5a2.26,2.26,0,0,1,1.52-1c.37,0,.35.35.36.62,0,.59,0,1.19,0,1.78Z"/><path class="cls-2" d="M131.32,208.23c0,.44,0,.88,0,1.32s0,.7-.53.69-.66-.12-.65-.61c0-1,0-2,0-3,0-.58.3-.65.74-.68.59,0,.49.36.48.72,0,.52,0,1,0,1.56Z"/><path class="cls-2" d="M173.24,208.77a.64.64,0,0,1,.62.8.71.71,0,0,1-.83.66.64.64,0,0,1-.65-.8A.75.75,0,0,1,173.24,208.77Z"/><path class="cls-2" d="M130.86,205.43c-.41,0-.7-.15-.73-.58a.7.7,0,0,1,.67-.8.6.6,0,0,1,.72.59A.65.65,0,0,1,130.86,205.43Z"/><path class="cls-2" d="M165.87,210.24c-.47,0-.74-.23-.74-.71a.7.7,0,0,1,.73-.75.61.61,0,0,1,.73.69A.7.7,0,0,1,165.87,210.24Z"/><path class="cls-15" d="M112.36,37.63a.76.76,0,0,1-.78-.14A.75.75,0,0,1,112.36,37.63Z"/></g></g></svg>