<svg xmlns="http://www.w3.org/2000/svg" xmlns:xlink="http://www.w3.org/1999/xlink" viewBox="0 0 163.9 165.74"><defs><style>.cls-1{fill:#d9eef4;}.cls-2{clip-path:url(#clip-path);}.cls-3{fill:#8ac8a6;}.cls-4{fill:#dbbe9e;}</style><clipPath id="clip-path"><circle class="cls-1" cx="81.95" cy="81.95" r="81.95"/></clipPath></defs><title>MedioAmbiente</title><g id="Capa_2" data-name="Capa 2"><g id="Capa_1-2" data-name="Capa 1"><g id="Medio_Ambiente" data-name="Medio Ambiente"><circle class="cls-1" cx="81.95" cy="81.95" r="81.95"/><g class="cls-2"><path class="cls-3" d="M76.13,27.49h3.68a.16.16,0,0,0,.12.13l.18,0a15.61,15.61,0,0,1,3,.79,13.55,13.55,0,0,1,2.75,1.41,14.56,14.56,0,0,1,2.32,1.92A13.15,13.15,0,0,1,90,34.15a1.62,1.62,0,0,0,.26.39c.11.1.27.12.54,0a12.33,12.33,0,0,1,2.18-1,13.76,13.76,0,0,1,2.33-.59,14,14,0,0,1,5.48.15,14.27,14.27,0,0,1,5,2.26A13.49,13.49,0,0,1,108.59,38a13.21,13.21,0,0,1,1.95,3.37,1,1,0,0,0,.31.44,1.15,1.15,0,0,0,.52.19,14.62,14.62,0,0,1,2.38.56,13.83,13.83,0,0,1,2.25,1,14.16,14.16,0,0,1,6.29,6.9,13.43,13.43,0,0,1,.6,9.08,3.59,3.59,0,0,0-.21,1.34,1.74,1.74,0,0,0,.66,1.18,2.29,2.29,0,0,1,.46.59c.13.22.25.46.37.68a14.19,14.19,0,0,1,1.6,4.33,14.33,14.33,0,0,1-.83,8,13.59,13.59,0,0,1-1.75,3,14.36,14.36,0,0,1-2.64,2.68,13.61,13.61,0,0,1-3.28,1.87.81.81,0,0,0-.38.29,1.06,1.06,0,0,0-.16.46,14.44,14.44,0,0,1-2.54,6.39,14.65,14.65,0,0,1-12,5.73,14.34,14.34,0,0,1-6.57-2,1.1,1.1,0,0,0-.76-.19,1.23,1.23,0,0,0-.64.42q-1.2,1.28-2.42,2.54l-2.44,2.53a2.83,2.83,0,0,0-.24.27.82.82,0,0,0-.15.35c-.25,1.42-.49,2.84-.68,4.27a41.11,41.11,0,0,0-.35,4.31,24.68,24.68,0,0,0,.46,4.94c.29,1.63.67,3.25,1,4.87.16.84.27,1.42.38,2s.23,2.19.88,2.76c-.59,0-5,2.7-8.72,2.68s-8.44-2.56-8.44-2.56c.84-.61,1-2.61,1.09-3.29A16.09,16.09,0,0,1,75,117.6c.32-1.38.64-2.76.9-4.15a34.84,34.84,0,0,0,.56-4.2,68.1,68.1,0,0,0,0-7.16c-.1-2.38-.27-4.77-.4-7.15a.74.74,0,0,0-.1-.41.46.46,0,0,0-.42-.13,3.21,3.21,0,0,1-.83-.07,6.64,6.64,0,0,1-.81-.24,16.36,16.36,0,0,1-2.83-1.33c-.9-.52-1.76-1.11-2.62-1.71a1.79,1.79,0,0,0-.8-.35,1.58,1.58,0,0,0-.86.17A13.5,13.5,0,0,1,62.86,92a13.8,13.8,0,0,1-4.08-.11,14.11,14.11,0,0,1-8.39-4.8A14,14,0,0,1,47.09,78a1.92,1.92,0,0,0-.1-.69,1.41,1.41,0,0,0-.41-.57,13.45,13.45,0,0,1-4.21-6.87A14.17,14.17,0,0,1,42,65a14.52,14.52,0,0,1,3.2-7.68A12.8,12.8,0,0,1,47.73,55a1.59,1.59,0,0,0,.56-.6,1.75,1.75,0,0,0,.15-.84,13.82,13.82,0,0,1,2.5-8.3A14.11,14.11,0,0,1,57.88,40a13.44,13.44,0,0,1,5.65-.7.88.88,0,0,0,.59-.09.76.76,0,0,0,.26-.56,8,8,0,0,1,.38-1.55,13.94,13.94,0,0,1,.62-1.48A14.4,14.4,0,0,1,68.76,31a14.17,14.17,0,0,1,4.93-2.82,12.28,12.28,0,0,1,1.24-.31A4.64,4.64,0,0,0,76.13,27.49Zm9.34,64.94s0,.27,0,.5c.11,1.62.83,2.05,2.34,1.45a16.06,16.06,0,0,0,4.09-2.64c.43-.34.41-.56.08-.95a13.33,13.33,0,0,1-3-6.5c0-.17,0-.37-.24-.42A3.89,3.89,0,0,0,86.81,85,36.11,36.11,0,0,0,85.48,92.43ZM75.66,84.1c.35.71.6,1.24.87,1.75a26.67,26.67,0,0,0,3.22,5.08c1,1.14,1.81,1.07,2.53-.24A17.39,17.39,0,0,0,83.66,86c.12-.53-.2-.45-.52-.43a13.78,13.78,0,0,1-5.72-.74C76.89,84.61,76.36,84.38,75.66,84.1Zm-2,.41A20,20,0,0,1,71.1,88c-.16.17-.06.28.08.36a10.32,10.32,0,0,0,4.66,2c.49,0,.6-.11.38-.56C75.39,88.05,74.57,86.34,73.69,84.51Z"/><path class="cls-4" d="M63.9,125.54,30,141.43c-12.34,5.79-8.22,24.3,5.42,24.3h93c13.63,0,17.76-18.52,5.42-24.3L100,125.54A42.52,42.52,0,0,0,63.9,125.54Z"/></g></g></g></g></svg>