<?xml version="1.0" encoding="utf-8"?>
<!-- Generator: Adobe Illustrator 21.0.0, SVG Export Plug-In . SVG Version: 6.00 Build 0)  -->
<svg version="1.1" id="Capa_1" xmlns="http://www.w3.org/2000/svg" xmlns:xlink="http://www.w3.org/1999/xlink" x="0px" y="0px"
	 viewBox="0 0 325.8 329.4" style="enable-background:new 0 0 325.8 329.4;" xml:space="preserve">
<style type="text/css">
	.st0{fill:#D9EEF4;}
	.st1{clip-path:url(#SVGID_2_);}
	.st2{fill:#DBBE9E;}
	.st3{fill:#009E49;}
	.st4{fill:#8AC8A6;}
</style>
<title>MedioAmbiente</title>
<g id="Capa_2">
	<g id="Capa_1-2">
		<g id="Medio_Ambiente">
			<circle class="st0" cx="162.9" cy="164.7" r="162.9"/>
			<g>
				<g>
					<defs>
						<circle id="SVGID_1_" cx="162.9" cy="164.7" r="162.9"/>
					</defs>
					<clipPath id="SVGID_2_">
						<use xlink:href="#SVGID_1_"  style="overflow:visible;"/>
					</clipPath>
					<g class="st1">
						<path class="st2" d="M166.4,172.4c-0.5,3.2-1.5,6.7-2.8,9.7c-1.4,2.6-3,2.7-5,0.5c-2.5-3.1-4.7-6.5-6.4-10.1
							c-0.5-0.9-0.9-2-1.5-3.2c-1.6,0-2.5,0.2-4,0.9c1.7,3.5,3.3,6.8,4.9,10.2c0.4,0.9,0.2,1.1-0.8,1.1c-3.4-0.5-6.6-1.9-9.3-4
							c-0.2-0.1-0.4-0.3-0.3-0.5c-1.8,1.6-2.8,5-5.7,5.4c0.2,0.1,0.4,0.3,0.6,0.5c1.7,1.2,3.4,2.4,5.2,3.4c1.8,1.1,3.7,1.9,5.6,2.6
							c0.5,0.2,1.1,0.4,1.6,0.5s1.1,0.2,1.6,0.1c0.3-0.1,0.6,0,0.8,0.3c0.1,0.2,0.2,0.5,0.2,0.8c0.3,4.7,0.6,9.5,0.8,14.2
							s0.2,9.5,0,14.2c-0.2,2.8-0.6,5.6-1.1,8.3c-0.5,2.8-1.2,5.5-1.8,8.2c-0.4,1.6-0.7,3.1-0.8,4.7c-0.2,1.4-0.5,5.3-2.2,6.5
							c0,0,9.4,5,16.8,5.1c7.4,0,16.2-5.3,17.3-5.3c-1.3-1.1-1.5-4.3-1.7-5.5s-0.4-2.3-0.8-4c-0.7-3.2-1.4-6.4-2-9.7
							c-0.6-3.2-0.9-6.5-0.9-9.8c0.1-2.9,0.3-5.7,0.7-8.6c0.4-2.8,0.9-5.7,1.4-8.5c0-0.3,0.1-0.5,0.3-0.7c0.1-0.2,0.3-0.4,0.5-0.5
							l4.9-5c1.6-1.7,3.2-3.4,4.8-5c0.2-0.3,0.9-0.5,1.2-0.7c-1.3-2.7-2.5-4.6-5-5c-2.4,2-6.2,4.6-9,5.8c-3,1.2-4.4,0.3-4.7-2.9
							c0-0.5,0-1,0-1l0,0c0.4-5,1.4-9.9,2.8-14.7c0,0-0.1-0.1-0.1-0.2"/>
						<path class="st3" d="M153.9,170.4c3.6,1.3,7.5,1.8,11.4,1.5c0.5,0,0.9,0.1,1.1,0.5c0.1,0.2,2.1,0.1,2.4,0.1
							c0.7,0,2.2-0.5,3.9-1.8c1-1.1,2.3-1.8,3.8-2.2c0.5,0.1,0.5,0.5,0.5,0.8c0.8,4.8,2.8,9.2,6,12.9c0.5,0.5,0.5,1,0.5,1.2
							c0,0.1,0.1,0.3,0.2,0.4c0.7,0.7,3.6,4.1,4.4,4.6c0.2,0.1,0.3,0.2,0.5,0.2c0.5,0,1.3,0,1.6,0.2c4,2.4,8.4,3.7,13.1,4
							c9.3,0.2,18.2-4,23.9-11.4c2.7-3.8,4.4-8.1,5-12.7c0-0.3,0.1-0.6,0.3-0.9c0.2-0.3,0.5-0.5,0.8-0.6c2.3-0.9,4.5-2.2,6.5-3.7
							s3.7-3.3,5.2-5.3c1.4-1.8,2.6-3.8,3.5-6c2.1-5,2.6-10.6,1.6-15.9c-0.6-3-1.7-5.9-3.2-8.6c-0.2-0.4-0.5-0.9-0.7-1.4
							c-0.2-0.4-0.5-0.8-0.9-1.2c-0.7-0.6-1.2-1.4-1.3-2.3c0-0.9,0.1-1.8,0.4-2.7c1.7-6,1.3-12.4-1.2-18
							c-2.5-5.9-6.9-10.7-12.5-13.7c-1.4-0.8-2.9-1.5-4.5-2c-1.5-0.5-3.1-0.9-4.7-1.1c-0.4,0-0.7-0.2-1-0.4
							c-0.3-0.2-0.5-0.5-0.6-0.9c-1-2.4-2.3-4.7-3.9-6.7c-1.6-2-3.5-3.8-5.6-5.2c-3-2.1-6.4-3.7-9.9-4.5c-3.6-0.8-7.3-0.9-10.9-0.3
							c-1.6,0.3-3.1,0.6-4.6,1.2c-1.5,0.5-3,1.2-4.3,2c-0.5,0.2-0.9,0.2-1.1,0c-0.2-0.2-0.4-0.5-0.5-0.8c-1-1.7-2.2-3.3-3.6-4.8
							c-1.4-1.4-2.9-2.7-4.6-3.8c-1.7-1.1-3.5-2.1-5.5-2.8c-1.9-0.7-3.9-1.2-6-1.6h-0.4c-0.1,0-0.2-0.1-0.2-0.3h-7.3
							c-0.8,0.4-1.6,0.6-2.4,0.8c-0.8,0.2-1.7,0.4-2.5,0.6c-3.6,1.2-6.9,3.1-9.8,5.6c-2.8,2.6-5.1,5.7-6.7,9.2
							c-0.5,1-0.9,1.9-1.2,2.9c-0.4,1-0.6,2-0.8,3.1c0,0.4-0.2,0.8-0.5,1.1c-0.4,0.2-0.8,0.3-1.2,0.2c-3.8-0.3-7.6,0.1-11.2,1.4
							c-5.6,1.9-10.4,5.6-13.8,10.5c-3.4,4.8-5.1,10.6-5,16.5c0,0.6-0.1,1.1-0.3,1.7c-0.3,0.5-0.6,0.9-1.1,1.2
							c-1.9,1.3-3.6,2.9-5,4.6c-3.6,4.4-5.8,9.7-6.4,15.3c-0.3,3.2-0.1,6.5,0.7,9.7c1.3,5.3,4.2,10.1,8.4,13.7
							c0.4,0.3,0.6,0.7,0.8,1.1c0.1,0.4,0.2,0.9,0.2,1.4c0,6.6,2.3,13,6.6,18.1c4.3,5,10.2,8.4,16.7,9.5c2.7,0.5,5.4,0.5,8.1,0.2
							s5.3-1.1,7.8-2.2c0.2-0.1,0.4-0.2,0.6-0.2c0.4-0.1,0.7-0.2,1.1-0.1c0.4,0.1,0.7,0.2,1,0.3c2.9-0.4,5.8-5.7,5.8-5.8
							c1.8-2,4.9-6.2,4.9-6.2s0.2-0.3,0.3-0.3c0.6,0,4-0.9,4-0.9"/>
						<path class="st4" d="M127,251.4L59.6,283c-24.5,11.5-16.3,48.3,10.8,48.3h184.9c27.1,0,35.3-36.8,10.8-48.3l-67.3-31.6
							C176,240.7,149.7,240.7,127,251.4z"/>
					</g>
				</g>
			</g>
		</g>
	</g>
</g>
</svg>
