<svg xmlns="http://www.w3.org/2000/svg" viewBox="0 0 163.9 163.9"><defs><style>.cls-1{fill:#2face3;}.cls-2{fill:#bababa;}.cls-3{fill:#c9c9c9;}.cls-4{fill:#848584;}.cls-5{fill:#9a9a9a;}.cls-6{fill:#fefefe;}.cls-7{fill:#1b2f4f;}.cls-8{fill:#fefeff;}.cls-9{fill:#f1f1f1;}.cls-10{fill:#fdfdfd;}.cls-11{fill:#fdfeff;}.cls-12{fill:#f9fafa;}.cls-13{fill:#7c868a;}.cls-14{fill:#fbfbfb;}</style></defs><title>mision</title><g id="Capa_2" data-name="Capa 2"><g id="Capa_1-2" data-name="Capa 1"><path class="cls-1" d="M19.44,134.75A74.16,74.16,0,0,1,4,106.83C-2.62,85.36-1.13,64.32,9.34,44.44,22,20.48,41.85,5.69,68.66,1.24,94.79-3.1,117.93,4,137.53,21.83c15.3,13.94,24,31.45,26,52.1,2.24,23.2-4.36,43.71-19.25,61.57-.43.51-.95,1-1.42,1.43L136.24,129c-1.89-2.31-3.92-4.53-5.63-7-1.27-1.81-2-1.29-3.06.1-1.74,2.23-3.61,4.35-5.43,6.52L107.7,99,85.54,53.48c0-1.88,0-3.75.06-5.63.13-3.21-.38-6.44.3-9.63h24.95a18.89,18.89,0,0,0-1.69-3c-1.92-2.25-1.68-4.35,0-6.58a6.44,6.44,0,0,0,1.49-3.07h-6.19c-6.07,0-12.15.17-18.21-.11-1.86-.09-2.09.27-2,1.86.1,3.6.06,7.21.08,10.81q0,7.67,0,15.34L67.88,87.25c-2.45,4.55-4.26,9.43-6.91,13.89-2.67-3.89-5.37-7.76-8-11.69-.83-1.25-1.28-1.25-2.13,0-3.91,5.76-7.91,11.47-11.88,17.2-.29.42-.71.8-.58,1.4A14.69,14.69,0,0,0,36,111Q27.72,122.87,19.44,134.75ZM130.31,61.57v.09c4.94,0,9.88,0,14.82,0,1.33,0,2.24-.53,2.4-1.82a1.9,1.9,0,0,0-1.82-2.34c-.68-.06-1-.26-1.2-1-.84-2.52-7.48-5.9-10.13-5.09a2.81,2.81,0,0,1-3.14-.59,5.38,5.38,0,0,0-7.52.31c-1.35,1.59-2.46,2.37-4.5,1.49a2.71,2.71,0,0,0-2.33.58,25.81,25.81,0,0,1-2.42,1.94c-1.72.85-2.6,2.07-2.1,3.94s1.93,2.48,3.79,2.47C120.88,61.54,125.6,61.57,130.31,61.57ZM44.72,48.14v0c3,0,6,0,9,0a3.46,3.46,0,0,0,3.51-2.92,3.69,3.69,0,0,0-1.66-4.3,6.31,6.31,0,0,1-2-1.71,5.67,5.67,0,0,0-8.3-1.31,2.67,2.67,0,0,1-2,.78,4.69,4.69,0,0,0-4.5,2,1.43,1.43,0,0,1-1.53.57c-2.69-.32-4.46,1-4.57,3.32-.1,2.14,1.55,3.6,4.19,3.64S42.09,48.14,44.72,48.14ZM19.28,76.92v0c2.25,0,4.5,0,6.75,0a2.32,2.32,0,0,0,2.49-2.12A2.6,2.6,0,0,0,27,71.82c-2.23-1.17-4.23-2.63-6.75-3.39s-4.71-.58-6.26,1.75c-.35.53-.42,1.22-1.34,1.29a2.49,2.49,0,0,0-2.47,3.08c.25,1.75,1.56,2.41,3.28,2.38C15.38,76.89,17.33,76.92,19.28,76.92Z"/><path class="cls-2" d="M61,101.14c2.64-4.46,4.46-9.33,6.91-13.89,2.51-.63,4.45-2.34,6.69-3.49C77.05,82.48,77,82.45,77,85.19c0,3,0,6,0,9.53l7.67-8.39q0,38.75,0,77.51l-8.17,0a76,76,0,0,1-40-13.5c.23-.18.57-.31.69-.54,3.52-7,7.17-13.89,10.15-21.13.58-.32.43-.91.53-1.41.54-.2.74-.68,1-1.15,1.8-3.66,3.7-7.27,5.38-11,.66-1.46,1.71-2.81,1.71-4.53a1,1,0,0,0,.87-.59Z"/><path class="cls-3" d="M84.72,163.84q0-38.75,0-77.51l.45-.88c1.06-.81,1.58,0,2.13.71q3,4.08,6,8.14l.55-.23V85.78l.65-.39a40.74,40.74,0,0,0,2.71,3.24c3.52,3.44,6.72,7.19,10.51,10.35l14.42,29.69-.5,1.42v0l-.48.69a12.6,12.6,0,0,0-2.12,1.93c-3.68,4.6-7.48,9.12-11.2,13.7-4.55,5.62-9.06,11.29-13.59,16.93a23.65,23.65,0,0,1-6.42.53Z"/><path class="cls-4" d="M94.25,163.32c4.53-5.65,9-11.31,13.59-16.93,3.71-4.58,7.51-9.09,11.2-13.7a12.61,12.61,0,0,1,2.12-1.93c.25-.17.61-.26.48-.69v0c1.53.27,2.4-1.4,4-1.32l.64,5.18,2.94-7,3.66,6.51a1.58,1.58,0,0,0,.43-1.19c0-3.28,0-3.28,3-3.23l6.57,7.92c-4.12,5.23-9.27,9.31-14.7,13A81.31,81.31,0,0,1,94.25,163.32Z"/><path class="cls-4" d="M56,110.64c0,1.72-1.05,3.07-1.71,4.53-1.68,3.71-3.58,7.33-5.38,11-.23.47-.43,1-1,1.15l-3.77-9.79c-2.88,4.37-6.1,7.92-8.47,12.09l0,0-.64.49c-2,2.8-4.06,5.61-6.16,8.37-.9,1.19-1.41,2.78-3,3.31a39.34,39.34,0,0,1-6.41-7Q27.71,122.86,36,111a14.7,14.7,0,0,1,2.42-2.92C40.57,107,42.13,105,44.47,104l1,7.14c1.56-2.3,2.81-4,4-5.87.77-1.22,1.32-1.59,2.3-.15C53.08,107,54.57,108.8,56,110.64Z"/><path class="cls-5" d="M25.85,141.75c1.64-.52,2.14-2.11,3-3.31,2.09-2.76,4.11-5.58,6.16-8.37.31,0,.64,0,.64-.49l0,0c1,.29,1.57-.41,2.15-.89,1.76-1.46,2.44-.78,2.87,1.15.36,1.62,1,3.19,1.63,5.33.86-2.63,1.62-4.7,2.22-6.81.38-1.32.92-1.35,1.81-.52.33.3.68.57,1,.86-3,7.23-6.63,14.15-10.15,21.13-.12.24-.45.36-.69.54A59.77,59.77,0,0,1,25.85,141.75Z"/><path class="cls-6" d="M107.7,99c-3.79-3.16-7-6.91-10.51-10.35a40.74,40.74,0,0,1-2.71-3.24l-.65.39v8.29l-.55.23q-3-4.07-6-8.14c-.55-.76-1.07-1.52-2.13-.71-.69-.58-.44-1.38-.44-2.09q0-14.88,0-29.77l.8-.11Z"/><path class="cls-7" d="M84.32,38.15c0-3.6,0-7.21-.08-10.81,0-1.6.18-1.95,2-1.86,6.06.28,12.14.11,18.21.11h6.19a6.44,6.44,0,0,1-1.49,3.07c-1.71,2.22-2,4.33,0,6.58a18.89,18.89,0,0,1,1.69,3H85.9Z"/><path class="cls-8" d="M130.31,61.57c-4.72,0-9.43,0-14.15,0-1.85,0-3.29-.6-3.79-2.47s.38-3.1,2.1-3.94a25.81,25.81,0,0,0,2.42-1.94,2.71,2.71,0,0,1,2.33-.58c2,.88,3.15.09,4.5-1.49a5.38,5.38,0,0,1,7.52-.31,2.81,2.81,0,0,0,3.14.59c2.64-.81,9.28,2.57,10.13,5.09.24.72.52.92,1.2,1a1.9,1.9,0,0,1,1.82,2.34c-.15,1.3-1.07,1.83-2.4,1.82-4.94,0-9.88,0-14.82,0Z"/><path class="cls-9" d="M84.73,53.59q0,14.88,0,29.77c0,.71-.25,1.51.44,2.09l-.45.88L77,94.72c0-3.54,0-6.54,0-9.53,0-2.74,0-2.7-2.47-1.43-2.24,1.15-4.18,2.86-6.69,3.49L84.31,53.48A.85.85,0,0,1,84.73,53.59Z"/><path class="cls-10" d="M56,110.64c-1.41-1.83-2.89-3.62-4.2-5.52-1-1.43-1.54-1.07-2.3.15-1.14,1.82-2.39,3.57-4,5.87l-1-7.14c-2.34,1-3.9,3-6.07,4.06-.12-.6.29-1,.58-1.4,4-5.73,8-11.43,11.88-17.2.85-1.26,1.3-1.26,2.13,0,2.61,3.93,5.31,7.8,8,11.69L56.84,110A1,1,0,0,1,56,110.64Z"/><path class="cls-8" d="M44.72,48.14c-2.62,0-5.25,0-7.87,0s-4.29-1.5-4.19-3.64c.11-2.3,1.89-3.64,4.57-3.32a1.43,1.43,0,0,0,1.53-.57,4.69,4.69,0,0,1,4.5-2,2.67,2.67,0,0,0,2-.78,5.67,5.67,0,0,1,8.3,1.31,6.31,6.31,0,0,0,2,1.71,3.69,3.69,0,0,1,1.66,4.3,3.46,3.46,0,0,1-3.51,2.92c-3,.06-6,0-9,0Z"/><path class="cls-11" d="M19.28,76.92c-1.95,0-3.9,0-5.85,0-1.72,0-3-.63-3.28-2.38a2.49,2.49,0,0,1,2.47-3.08c.92-.07,1-.77,1.34-1.29,1.55-2.33,3.62-2.54,6.26-1.75s4.53,2.21,6.75,3.39a2.6,2.6,0,0,1,1.54,2.94A2.32,2.32,0,0,1,26,76.87c-2.25,0-4.5,0-6.75,0Z"/><path class="cls-12" d="M136.24,129c-2.95-.05-2.95-.05-3,3.23a1.58,1.58,0,0,1-.43,1.19l-3.66-6.51-2.94,7-.64-5.18c-1.56-.07-2.44,1.6-4,1.32l.5-1.42c1.82-2.17,3.7-4.29,5.43-6.52,1.08-1.38,1.78-1.91,3.06-.1C132.32,124.48,134.35,126.7,136.24,129Z"/><path class="cls-13" d="M84.73,53.59a.85.85,0,0,0-.42-.11q0-7.67,0-15.34l1.59.08c-.68,3.19-.17,6.42-.31,9.63-.08,1.87,0,3.75-.06,5.63Z"/><path class="cls-14" d="M47.38,128.7c-.34-.28-.7-.56-1-.86-.9-.83-1.44-.8-1.81.52-.6,2.12-1.35,4.19-2.22,6.81-.67-2.14-1.27-3.71-1.63-5.33-.43-1.93-1.12-2.61-2.87-1.15-.58.48-1.2,1.18-2.15.89,2.38-4.17,5.59-7.72,8.47-12.09l3.77,9.79C47.81,127.79,48,128.39,47.38,128.7Z"/><path class="cls-12" d="M121.63,130.06c.13.43-.23.52-.48.69Z"/><path class="cls-14" d="M35.7,129.58c0,.45-.33.46-.64.49Z"/></g></g></svg>