<?xml version="1.0" encoding="utf-8"?>
<!-- Generator: Adobe Illustrator 21.0.0, SVG Export Plug-In . SVG Version: 6.00 Build 0)  -->
<svg version="1.1" id="Capa_1" xmlns="http://www.w3.org/2000/svg" xmlns:xlink="http://www.w3.org/1999/xlink" x="0px" y="0px"
	 viewBox="0 0 314.9 314.7" style="enable-background:new 0 0 314.9 314.7;" xml:space="preserve">
<style type="text/css">
	.st0{fill:#CCFFF5;}
	.st1{fill:#F7931E;}
	.st2{fill:#3E74B9;}
	.st3{fill:#93278F;}
</style>
<circle class="st0" cx="157.4" cy="157.3" r="156.7"/>
<g id="YCMZlv.tif">
	<g>
		<path class="st1" d="M230.4,231.6c-48.7,0-97.3,0-146,0c-1.9-16,5.8-26.3,19.4-33.2c4.1-2.1,8.4-3.9,12.7-5.8
			c5.4-2.5,11-4.7,16.3-7.5c6.5-3.4,7.3-7.3,3.4-13.5c-2.4-3.8-5-7.5-7.1-11.4c-8.8-16.5-11.3-33.6-3.8-51.3
			c5.9-14,18.1-22.2,32.2-21.9c15,0.3,27.6,9,32.9,23.3c4.8,12.9,4.5,26.1,0.3,39.2c-2.4,7.6-6.4,14.2-10.9,20.6
			c-5.6,8.1-4.7,11.5,4.1,16c4.1,2.1,8.5,3.8,12.7,5.7c4.8,2.2,9.8,4.1,14.5,6.6C224.6,205.2,232.3,215.6,230.4,231.6z"/>
		<path class="st2" d="M106.6,83.7c2.4-0.1,4.7,0.3,6.9,1.3c2.1,0.9,4.1,1.8,6.2,2.8c3.1,1.4,3.9,3,1.7,6.4
			c-8.2,12.4-12.1,26.2-10.9,41.2c1.1,13.7,6.2,26.1,13.4,37.7c2,3.2,1.3,4.2-1.9,5.6c-8,3.2-15.9,6.8-23.7,10.4
			c-8.1,3.7-14.5,9.4-19,17.1c-2,3.4-4.3,4.3-8.1,4.3c-10.3-0.1-20.5,0.2-30.8,0.4v-11c4.2-11.1,13-17.2,23.4-21.6
			c5.5-2.4,11.1-4.5,16.5-7.1c9.1-4.4,9.8-7.1,4.1-15.3c-6.2-8.9-10.3-18.5-11.5-29.4C71.2,111.3,76.6,91,96,84.8
			C96.4,84.7,102,84,106.6,83.7z"/>
		<path class="st3" d="M274.4,210.6c-10.5-0.1-20.9-0.3-31.4-0.3c-3.3,0-5.4-0.9-7.2-4c-5.9-10-15.2-16.1-25.6-20.7
			c-7.1-3.1-14.3-6-21.8-9.1c10.4-14.7,16.1-30.4,15.9-48c-0.2-12.6-3.4-24.4-11-34.6c-2.3-3.1-1.5-4.5,1.4-5.9
			c3.2-1.5,6.3-3.7,9.7-4.5c3.6-0.8,7.4-0.8,11,0c5.9,1.2,11.4,4.1,15.9,8.6c9.3,9.2,11.4,20.7,10.6,33.1
			c-0.8,11.7-5.3,21.8-12.2,31.2c-4.9,6.7-4,10,3.4,13.7c6.4,3.2,13.1,5.7,19.6,8.6c10,4.5,18.3,10.7,21.6,21.8
			C274.4,203.9,274.4,207.3,274.4,210.6z"/>
	</g>
</g>
</svg>
