<svg xmlns="http://www.w3.org/2000/svg" viewBox="0 0 163.9 163.9"><defs><style>.cls-1{fill:#c392c2;}.cls-2{fill:#8ac8a6;}.cls-3,.cls-4,.cls-8,.cls-9{fill:none;}.cls-3{stroke:#98af21;}.cls-3,.cls-4,.cls-5,.cls-8,.cls-9{stroke-miterlimit:10;}.cls-3,.cls-4,.cls-5,.cls-9{stroke-width:4px;}.cls-4{stroke:#fcd5ba;}.cls-5,.cls-7{fill:#fff;}.cls-5{stroke:#d87d3f;}.cls-6{fill:#d87d3f;}.cls-8,.cls-9{stroke:#1490b2;}.cls-10{fill:#fcd5ba;}</style></defs><title>despensa</title><g id="Capa_2" data-name="Capa 2"><g id="Capa_1-2" data-name="Capa 1"><g id="Alimentos"><circle class="cls-1" cx="81.95" cy="81.95" r="81.95"/><path class="cls-2" d="M112.07,62.51c-3.12-.81-4.42,1.75-6.65,1.72-3.3-.63-4.22-2.76-7.22-1.58-2.75.83-6.9,4.88-7.5,9a13.07,13.07,0,0,0-.25,4.11l30.31-.13C121.51,70.62,116.14,62.34,112.07,62.51Z"/><path class="cls-3" d="M24.12,72.51"/><path class="cls-4" d="M82.86,75.56c-2.71-5.11-8-10.41-14.17-15.76C57.27,49.88,44.87,45.44,41,49.9s2.12,15.83,13.28,25.67"/><path class="cls-5" d="M120.54,75.81H45.7a2.56,2.56,0,0,0-2.55,2.55V84.6a2.56,2.56,0,0,0,2.55,2.55h74.84a2.56,2.56,0,0,0,2.55-2.55V78.36A2.56,2.56,0,0,0,120.54,75.81ZM55.53,79m30.31,0-1,1.07-30.31,0"/><path class="cls-6" d="M56.78,120.11,48.93,87h70.66l-7.23,30.54s-1.05,6.42-3.17,6.42H60.61A3.82,3.82,0,0,1,56.78,120.11Z"/><rect class="cls-7" x="55.66" y="91.69" width="6.5" height="6.5" rx="2.13" ry="2.13"/><rect class="cls-7" x="67.82" y="91.69" width="6.5" height="6.5" rx="2.13" ry="2.13"/><rect class="cls-7" x="79.92" y="91.68" width="6.5" height="6.5" rx="2.13" ry="2.13"/><rect class="cls-7" x="92" y="91.68" width="6.5" height="6.5" rx="2.13" ry="2.13"/><rect class="cls-7" x="104.19" y="91.68" width="6.5" height="6.5" rx="2.13" ry="2.13"/><rect class="cls-7" x="61.3" y="102.11" width="6.5" height="6.5" rx="2.13" ry="2.13"/><rect class="cls-7" x="73.49" y="102.2" width="6.5" height="6.5" rx="2.13" ry="2.13"/><rect class="cls-7" x="85.57" y="102.2" width="6.5" height="6.5" rx="2.13" ry="2.13"/><rect class="cls-7" x="97.77" y="102.11" width="6.5" height="6.5" rx="2.13" ry="2.13"/><rect class="cls-7" x="67.82" y="112.52" width="6.5" height="6.5" rx="2.13" ry="2.13"/><rect class="cls-7" x="79.99" y="112.53" width="6.5" height="6.5" rx="2.13" ry="2.13"/><rect class="cls-7" x="92" y="112.54" width="6.5" height="6.5" rx="2.13" ry="2.13"/><path class="cls-6" d="M98.3,40.34h0a4.48,4.48,0,0,0-5.89,2.3S81.84,66.85,78.3,74.91l-.68,1.53,5.26.09,3.35,0,13.91-31.5A3.59,3.59,0,0,0,98.3,40.34Z"/><path class="cls-8" d="M57,76.74"/><path class="cls-8" d="M83.3,76.74"/><path class="cls-9" d="M83.42,85.6"/><path class="cls-2" d="M114.25,50.85A8,8,0,0,0,110.33,52l-1.26.63a1.16,1.16,0,0,0-.56.46,15.88,15.88,0,0,0-1.45,2.23,8,8,0,0,0-.81,4.29,12.92,12.92,0,0,0,3.34,0,4,4,0,0,0,1.28-.34,4.61,4.61,0,0,0,1-.75A12.33,12.33,0,0,0,114.14,56a6.92,6.92,0,0,0,.87-5.12.26.26,0,0,0-.07-.15.27.27,0,0,0-.2,0l-1.07.08"/><path class="cls-10" d="M49,60.33l5.42-9.22a1.42,1.42,0,0,1,2.22-.28l3.8,3.8a1.42,1.42,0,0,1-.28,2.22l-9.22,5.42A1.42,1.42,0,0,1,49,60.33Z"/><path class="cls-10" d="M68.29,71.07l3.3-5.61a1.42,1.42,0,0,1,2.22-.28l2.31,2.31a1.42,1.42,0,0,1-.28,2.22L70.23,73A1.42,1.42,0,0,1,68.29,71.07Z"/><path class="cls-10" d="M59,64.62l4.26-7.24a1.42,1.42,0,0,1,2.22-.28l3,3a1.42,1.42,0,0,1-.28,2.22L60.9,66.56A1.42,1.42,0,0,1,59,64.62Z"/></g></g></g></svg>