<svg xmlns="http://www.w3.org/2000/svg" viewBox="0 0 163.9 163.9"><defs><style>.cls-1{fill:#a2d5cd;}.cls-2{fill:#f3b388;}.cls-3{fill:#f9bc91;}.cls-4{fill:#f2f2f2;}.cls-5{fill:#fdfdfd;}.cls-6{fill:#fbfbfb;}.cls-7{fill:#fafafa;}</style></defs><title>Educacion</title><g id="Capa_2" data-name="Capa 2"><g id="Capa_1-2" data-name="Capa 1"><g id="Educacion"><circle class="cls-1" cx="81.95" cy="81.95" r="81.95"/><path class="cls-2" d="M122.38,83.74c-1.77-3.82-1.53-8-.34-12a6.6,6.6,0,0,0,.06-4.86,5.25,5.25,0,0,1,.11-3.22A3.56,3.56,0,0,0,120,59.29a3.32,3.32,0,0,0-1.29-.13,2.51,2.51,0,0,1-1.32,1.47,2.51,2.51,0,0,0,1.32-1.47,3.73,3.73,0,0,0-3.05,2.78,7.66,7.66,0,0,0-.51,3.87c.44,2.25-.54,3.84-1.81,5.52q-11,14.56-21.87,29.23A2.42,2.42,0,0,1,90,101.63v0a3.12,3.12,0,0,1-1.43-.11q-18.75-5-37.54-10a3.61,3.61,0,0,1-2.86-2.91,13.48,13.48,0,0,1-.24-1.73c-.52-5,1.17-6.45,6-5.2,11,2.85,22,5.68,32.93,8.62a5,5,0,0,0,2.66.09L80,57.48c-2.61-.52-5.22-1-7.82-1.57-2.78-.58-3-1.09-1.25-3.35,1-1.34,1.93-2.82,4-2.85l3,.63-3.44-12a4.41,4.41,0,0,0-2.11,1.47C63,51.23,53.38,62.47,44.14,74c-4.61,5.77-4.28,12.47-1.53,19a3.68,3.68,0,0,1,0,3.36c-2.08,4.69-1.4,9.29,1.09,13.6a10.33,10.33,0,0,0,6.49,4.84q19.68,5.4,39.32,10.9c.53.15,1.18.13,1.51.72l2.62-.1c4.89-5.28,8.84-11.28,13.24-16.94,4.88-6.27,9.58-12.68,14.45-18.95C123,88.35,123.64,86.46,122.38,83.74Zm-10.16,7.47q-10.11,13.18-20.08,26.47a2.75,2.75,0,0,1-1.23,1l-.08.37.08-.37a2.67,2.67,0,0,1-1.66-.06C77,115.19,64.74,111.8,52.47,108.39c-3.39-.94-5.39-6.38-3.54-9.42.62-1,1.29-.58,2.06-.38q17.72,4.7,35.44,9.37c3.64,1,5.22,1.48,6.55.9l.16-.76-.16.76c1.19-.52,2.17-1.91,4.21-4.68,5.19-7,10.47-14,15.72-21,.47-.63,1-1.25,1.34-1.73C117.41,85.56,114.48,88.26,112.22,91.21Z"/><path class="cls-3" d="M118.79,46.09q-20.92-3.94-41.85-7.81a4.94,4.94,0,0,0-2.38.09l3.44,12,5.06,1c4.78,1,9.56,1.92,14.33,2.93,2.14.45,2.19.95,1.07,2.77-1.74,2.84-4,3.54-7.22,2.76C87.53,59,83.79,58.22,80,57.48l9.45,32.93a3.64,3.64,0,0,0,.47-.18v0a4.68,4.68,0,0,0,1.84-1.5q13.27-17,26.56-34a1.56,1.56,0,0,1,.37-.67,1.56,1.56,0,0,0-.37.67l2.52-3.22C122.81,49,121.87,46.67,118.79,46.09Z"/><path class="cls-4" d="M89.49,90.42h0a5,5,0,0,1-2.66-.09c-11-2.94-21.95-5.77-32.93-8.62-4.84-1.26-6.53.22-6,5.2a13.48,13.48,0,0,0,.24,1.73A3.61,3.61,0,0,0,51,91.55q18.79,4.91,37.54,10a3.12,3.12,0,0,0,1.43.11V90.24A3.64,3.64,0,0,1,89.49,90.42Z"/><path class="cls-5" d="M118.36,54.75q-13.26,17-26.56,34A4.68,4.68,0,0,1,90,90.24v11.39a2.42,2.42,0,0,0,1.46-1.08q10.85-14.68,21.87-29.23c1.27-1.68,2.25-3.26,1.81-5.52a7.66,7.66,0,0,1,.51-3.87,3.73,3.73,0,0,1,3.05-2.78C119.1,57.73,118,56,118.36,54.75Z"/><path class="cls-4" d="M86.43,108Q68.72,103.27,51,98.59c-.76-.2-1.44-.64-2.06.38-1.85,3,.15,8.47,3.54,9.42,12.26,3.41,24.53,6.8,36.78,10.27a2.67,2.67,0,0,0,1.66.06L93,108.87C91.65,109.45,90.07,108.93,86.43,108Z"/><path class="cls-6" d="M114.25,81.46c-.37.48-.86,1.1-1.34,1.73-5.24,7-10.53,14-15.72,21-2,2.77-3,4.16-4.21,4.68l-2.07,9.85a2.75,2.75,0,0,0,1.23-1q10-13.29,20.08-26.47C114.48,88.26,117.41,85.56,114.25,81.46Z"/><path class="cls-4" d="M74.95,49.72c-2.05,0-3,1.51-4,2.85-1.7,2.26-1.52,2.77,1.25,3.35,2.6.54,5.21,1,7.82,1.57l-2-7.13Z"/><path class="cls-7" d="M97.39,54.33c-4.77-1-9.55-2-14.33-2.93l-5.06-1,2,7.13c3.75.74,7.49,1.5,11.2,2.38,3.24.77,5.47.07,7.22-2.76C99.58,55.28,99.53,54.78,97.39,54.33Z"/></g></g></g></svg>