<svg xmlns="http://www.w3.org/2000/svg" viewBox="0 0 163.9 163.9"><defs><style>.cls-1{fill:#ec6374;}.cls-2{fill:#fff;}.cls-3{fill:#ececec;}</style></defs><title>Salud</title><g id="Capa_2" data-name="Capa 2"><g id="Capa_1-2" data-name="Capa 1"><g id="Salud"><circle class="cls-1" cx="81.95" cy="81.95" r="81.95"/><path class="cls-2" d="M100.45,90.59q0-13.44-.06-26.88c0-5.57,0-11.15-.07-16.72A17.86,17.86,0,0,0,93.9,33.14a17.64,17.64,0,0,0-11.2-4.31c-.42,0-.84,0-1.26,0v4.79a3,3,0,0,1,2.67.81,3,3,0,0,1-2.67,5.12V52.95a3,3,0,1,1,0,5.94v4.83a13.46,13.46,0,0,1,10.29,4,12.46,12.46,0,0,1,3.65,8.56c.07,3.35.22,6.72,0,10.06a12.68,12.68,0,0,1-6.85,10.72,13.28,13.28,0,0,1-7.09,1.69v4.85a2.9,2.9,0,0,1,2.81.74,3,3,0,0,1-2.81,5.1V123a3,3,0,1,1,0,5.8v4.87l.7,0a17.75,17.75,0,0,0,7.3-1.54A18.15,18.15,0,0,0,98.29,124a16.67,16.67,0,0,0,2.17-8Q100.49,103.31,100.45,90.59ZM84.69,48.37a3,3,0,1,1,4.27,0A3,3,0,0,1,84.69,48.37ZM93.79,58a3,3,0,1,1,.05-4.26A3,3,0,0,1,93.79,58Zm-4.6,60.31a3.11,3.11,0,0,1-4.33,0,3.08,3.08,0,0,1,.06-4.28,3,3,0,0,1,4.27,0A3.07,3.07,0,0,1,89.19,118.29ZM94,108.55a3,3,0,1,1-.05-4.26A3,3,0,0,1,94,108.55Z"/><path class="cls-3" d="M80.14,128a3.09,3.09,0,0,1-.1-4.28,3,3,0,0,1,1.41-.81V109.46a3,3,0,0,1-1.37-.77,3,3,0,0,1,0-4.24,3.12,3.12,0,0,1,1.42-.84V98.76a13.29,13.29,0,0,1-11.55-7.85,15.44,15.44,0,0,1-1.17-6.6c0-2.28,0-4.55,0-6.83a13.44,13.44,0,0,1,8.7-12.91,13.94,13.94,0,0,1,4-.84V58.89A3.08,3.08,0,0,1,79.88,58a3,3,0,0,1,0-4.24,3.06,3.06,0,0,1,1.54-.85V39.57a2.94,2.94,0,0,1-1.66-.84,3.09,3.09,0,0,1,.05-4.28,3,3,0,0,1,1.61-.81V28.84a18.33,18.33,0,0,0-10.62,3.82,6,6,0,0,1-.57.34l-2.48,2.51-1.15,1.75a19.33,19.33,0,0,0-3,11.08c.06,5.46,0,10.92.07,16.38q0,8.77.06,17.53c0,4.76,0,9.52,0,14.29,0,5.44,0,10.88.08,16.32a37.42,37.42,0,0,0,.32,5.73,17.42,17.42,0,0,0,7,11.45,17.87,17.87,0,0,0,10.21,3.58v-4.87A2.89,2.89,0,0,1,80.14,128ZM75,44.16a3.11,3.11,0,0,1,4.29,0,3.07,3.07,0,0,1,0,4.32A3,3,0,0,1,75,44.16Zm-4.79,9.71a3,3,0,1,1,0,4.26A3,3,0,0,1,70.22,53.87Zm.13,54.86a3,3,0,0,1,4.32-4.26,3,3,0,1,1-4.32,4.26Zm4.9,9.68a3,3,0,1,1,4.29,0A3.11,3.11,0,0,1,75.25,118.41Z"/><path class="cls-3" d="M36.58,68.18,38.3,67a18.68,18.68,0,0,1,10.64-3c3.37,0,6.73,0,10.1,0l.44,0,.17,36.23c-2.58,0-5,0-7.47,0-1.83,0-3.66.07-5.48-.09A18.06,18.06,0,0,1,30.28,84.32a16.91,16.91,0,0,1,1.32-9.21c.65-1.41,1.54-2.7,2.32-4,.08-.13.14-.27.21-.41Z"/><path class="cls-2" d="M104.61,99.92l-.21-36.25h7.33c1.71,0,3.43,0,5.14.05A18.1,18.1,0,0,1,131.75,90a17.51,17.51,0,0,1-6.3,7,19.36,19.36,0,0,1-10.93,2.92C111.22,99.84,107.92,99.9,104.61,99.92Z"/></g></g></g></svg>